%TF.GenerationSoftware,KiCad,Pcbnew,10.0.5*%
%TF.CreationDate,2026-08-07T18:05:25+02:00*%
%TF.ProjectId,swag PCB ruler,73776167-2050-4434-9220-72756c65722e,rev?*%
%TF.SameCoordinates,Original*%
%TF.FileFunction,Paste,Top*%
%TF.FilePolarity,Positive*%
%FSLAX46Y46*%
G04 Gerber Fmt 4.6, Leading zero omitted, Abs format (unit mm)*
G04 Created by KiCad (PCBNEW 10.0.5) date 2026-08-07 18:05:25*
%MOMM*%
%LPD*%
G01*
G04 APERTURE LIST*
G04 Aperture macros list*
%AMRoundRect*
0 Rectangle with rounded corners*
0 $1 Rounding radius*
0 $2 $3 $4 $5 $6 $7 $8 $9 X,Y pos of 4 corners*
0 Add a 4 corners polygon primitive as box body*
4,1,4,$2,$3,$4,$5,$6,$7,$8,$9,$2,$3,0*
0 Add four circle primitives for the rounded corners*
1,1,$1+$1,$2,$3*
1,1,$1+$1,$4,$5*
1,1,$1+$1,$6,$7*
1,1,$1+$1,$8,$9*
0 Add four rect primitives between the rounded corners*
20,1,$1+$1,$2,$3,$4,$5,0*
20,1,$1+$1,$4,$5,$6,$7,0*
20,1,$1+$1,$6,$7,$8,$9,0*
20,1,$1+$1,$8,$9,$2,$3,0*%
G04 Aperture macros list end*
%ADD10RoundRect,0.075000X-0.675000X-0.075000X0.675000X-0.075000X0.675000X0.075000X-0.675000X0.075000X0*%
%ADD11RoundRect,0.075000X-0.075000X-0.675000X0.075000X-0.675000X0.075000X0.675000X-0.075000X0.675000X0*%
%ADD12RoundRect,0.150000X-0.200000X0.150000X-0.200000X-0.150000X0.200000X-0.150000X0.200000X0.150000X0*%
%ADD13RoundRect,0.250000X0.475000X-0.250000X0.475000X0.250000X-0.475000X0.250000X-0.475000X-0.250000X0*%
%ADD14RoundRect,0.079500X0.100500X-0.079500X0.100500X0.079500X-0.100500X0.079500X-0.100500X-0.079500X0*%
%ADD15RoundRect,0.250000X1.075000X-0.425000X1.075000X0.425000X-1.075000X0.425000X-1.075000X-0.425000X0*%
%ADD16RoundRect,0.062500X-0.062500X0.117500X-0.062500X-0.117500X0.062500X-0.117500X0.062500X0.117500X0*%
%ADD17RoundRect,0.250000X0.650000X-1.000000X0.650000X1.000000X-0.650000X1.000000X-0.650000X-1.000000X0*%
%ADD18RoundRect,0.250000X2.025000X2.375000X-2.025000X2.375000X-2.025000X-2.375000X2.025000X-2.375000X0*%
%ADD19RoundRect,0.250000X2.050000X0.300000X-2.050000X0.300000X-2.050000X-0.300000X2.050000X-0.300000X0*%
%ADD20RoundRect,0.250000X1.125000X-1.275000X1.125000X1.275000X-1.125000X1.275000X-1.125000X-1.275000X0*%
%ADD21RoundRect,0.250000X0.350000X-0.850000X0.350000X0.850000X-0.350000X0.850000X-0.350000X-0.850000X0*%
%ADD22RoundRect,0.140000X0.170000X-0.140000X0.170000X0.140000X-0.170000X0.140000X-0.170000X-0.140000X0*%
%ADD23RoundRect,0.250000X1.400000X1.000000X-1.400000X1.000000X-1.400000X-1.000000X1.400000X-1.000000X0*%
%ADD24RoundRect,0.250000X1.100000X-0.325000X1.100000X0.325000X-1.100000X0.325000X-1.100000X-0.325000X0*%
%ADD25RoundRect,0.250000X0.700000X-0.275000X0.700000X0.275000X-0.700000X0.275000X-0.700000X-0.275000X0*%
%ADD26R,1.500000X1.800000*%
%ADD27RoundRect,0.250000X0.900000X-1.000000X0.900000X1.000000X-0.900000X1.000000X-0.900000X-1.000000X0*%
%ADD28R,1.200000X1.500000*%
%ADD29R,2.100000X2.600000*%
%ADD30RoundRect,0.150000X-0.587500X-0.150000X0.587500X-0.150000X0.587500X0.150000X-0.587500X0.150000X0*%
%ADD31RoundRect,0.225000X0.250000X-0.225000X0.250000X0.225000X-0.250000X0.225000X-0.250000X-0.225000X0*%
%ADD32R,1.200000X1.200000*%
%ADD33RoundRect,0.112500X0.112500X-0.187500X0.112500X0.187500X-0.112500X0.187500X-0.112500X-0.187500X0*%
%ADD34RoundRect,0.145000X-0.440000X-0.145000X0.440000X-0.145000X0.440000X0.145000X-0.440000X0.145000X0*%
%ADD35RoundRect,0.062500X-0.350000X-0.062500X0.350000X-0.062500X0.350000X0.062500X-0.350000X0.062500X0*%
%ADD36RoundRect,0.062500X-0.062500X-0.350000X0.062500X-0.350000X0.062500X0.350000X-0.062500X0.350000X0*%
G04 APERTURE END LIST*
D10*
%TO.C,REF\u002A\u002A*%
X201637500Y-114187500D03*
X201637500Y-114687500D03*
X201637500Y-115187500D03*
X201637500Y-115687500D03*
X201637500Y-116187500D03*
X201637500Y-116687500D03*
X201637500Y-117187500D03*
X201637500Y-117687500D03*
D11*
X203062500Y-119112500D03*
X203562500Y-119112500D03*
X204062500Y-119112500D03*
X204562500Y-119112500D03*
X205062500Y-119112500D03*
X205562500Y-119112500D03*
X206062500Y-119112500D03*
X206562500Y-119112500D03*
D10*
X207987500Y-117687500D03*
X207987500Y-117187500D03*
X207987500Y-116687500D03*
X207987500Y-116187500D03*
X207987500Y-115687500D03*
X207987500Y-115187500D03*
X207987500Y-114687500D03*
X207987500Y-114187500D03*
D11*
X206562500Y-112762500D03*
X206062500Y-112762500D03*
X205562500Y-112762500D03*
X205062500Y-112762500D03*
X204562500Y-112762500D03*
X204062500Y-112762500D03*
X203562500Y-112762500D03*
X203062500Y-112762500D03*
%TD*%
D12*
%TO.C,REF\u002A\u002A*%
X140125000Y-121125000D03*
X140125000Y-119725000D03*
%TD*%
D13*
%TO.C,REF\u002A\u002A*%
X116800000Y-118075000D03*
X116800000Y-116175000D03*
%TD*%
D14*
%TO.C,REF\u002A\u002A*%
X111900000Y-118270000D03*
X111900000Y-117580000D03*
%TD*%
D15*
%TO.C,REF\u002A\u002A*%
X127000000Y-117450000D03*
X127000000Y-112950000D03*
%TD*%
D16*
%TO.C,REF\u002A\u002A*%
X138125000Y-121245000D03*
X138125000Y-120405000D03*
%TD*%
D17*
%TO.C,REF\u002A\u002A*%
X155100000Y-116475000D03*
X155100000Y-112475000D03*
%TD*%
D18*
%TO.C,REF\u002A\u002A*%
X188450000Y-115800000D03*
X188450000Y-110250000D03*
X183600000Y-115800000D03*
X183600000Y-110250000D03*
D19*
X195175000Y-115565000D03*
X195175000Y-110485000D03*
%TD*%
D20*
%TO.C,REF\u002A\u002A*%
X174295000Y-112300000D03*
X177345000Y-112300000D03*
X174295000Y-108950000D03*
X177345000Y-108950000D03*
D21*
X173540000Y-116925000D03*
X178100000Y-116925000D03*
%TD*%
D22*
%TO.C,REF\u002A\u002A*%
X113100000Y-118285000D03*
X113100000Y-117325000D03*
%TD*%
D23*
%TO.C,REF\u002A\u002A*%
X167400000Y-116775000D03*
X167400000Y-109975000D03*
%TD*%
D24*
%TO.C,REF\u002A\u002A*%
X123100000Y-117775000D03*
X123100000Y-114825000D03*
%TD*%
D25*
%TO.C,REF\u002A\u002A*%
X119600000Y-118000000D03*
X119600000Y-114850000D03*
%TD*%
D26*
%TO.C,REF\u002A\u002A*%
X140300000Y-108300000D03*
X137300000Y-108300000D03*
%TD*%
D27*
%TO.C,REF\u002A\u002A*%
X160400000Y-116725000D03*
X160400000Y-112425000D03*
%TD*%
D28*
%TO.C,REF\u002A\u002A*%
X137200000Y-106100000D03*
X139100000Y-106100000D03*
%TD*%
D29*
%TO.C,REF\u002A\u002A*%
X142450000Y-111000000D03*
X137550000Y-111000000D03*
%TD*%
D30*
%TO.C,REF\u002A\u002A*%
X146225000Y-119025000D03*
X146225000Y-120925000D03*
X148100000Y-119975000D03*
%TD*%
D31*
%TO.C,REF\u002A\u002A*%
X114700000Y-118000000D03*
X114700000Y-116450000D03*
%TD*%
D32*
%TO.C,REF\u002A\u002A*%
X151000000Y-120825000D03*
X151000000Y-118025000D03*
%TD*%
D33*
%TO.C,REF\u002A\u002A*%
X143125000Y-121125000D03*
X143125000Y-119025000D03*
%TD*%
D34*
%TO.C,REF\u002A\u002A*%
X204762500Y-107440000D03*
X204762500Y-108160000D03*
D35*
X203325000Y-107300000D03*
X203325000Y-107800000D03*
X203325000Y-108300000D03*
D36*
X204262500Y-109237500D03*
X204762500Y-109237500D03*
X205262500Y-109237500D03*
D35*
X206200000Y-108300000D03*
X206200000Y-107800000D03*
X206200000Y-107300000D03*
D36*
X205262500Y-106362500D03*
X204762500Y-106362500D03*
X204262500Y-106362500D03*
%TD*%
M02*
