%TF.GenerationSoftware,KiCad,Pcbnew,10.0.5*%
%TF.CreationDate,2026-08-02T13:39:09+02:00*%
%TF.ProjectId,swag PCB ruler,73776167-2050-4434-9220-72756c65722e,rev?*%
%TF.SameCoordinates,Original*%
%TF.FileFunction,Copper,L2,Bot*%
%TF.FilePolarity,Positive*%
%FSLAX46Y46*%
G04 Gerber Fmt 4.6, Leading zero omitted, Abs format (unit mm)*
G04 Created by KiCad (PCBNEW 10.0.5) date 2026-08-02 13:39:09*
%MOMM*%
%LPD*%
G01*
G04 APERTURE LIST*
G04 Aperture macros list*
%AMRoundRect*
0 Rectangle with rounded corners*
0 $1 Rounding radius*
0 $2 $3 $4 $5 $6 $7 $8 $9 X,Y pos of 4 corners*
0 Add a 4 corners polygon primitive as box body*
4,1,4,$2,$3,$4,$5,$6,$7,$8,$9,$2,$3,0*
0 Add four circle primitives for the rounded corners*
1,1,$1+$1,$2,$3*
1,1,$1+$1,$4,$5*
1,1,$1+$1,$6,$7*
1,1,$1+$1,$8,$9*
0 Add four rect primitives between the rounded corners*
20,1,$1+$1,$2,$3,$4,$5,0*
20,1,$1+$1,$4,$5,$6,$7,0*
20,1,$1+$1,$6,$7,$8,$9,0*
20,1,$1+$1,$8,$9,$2,$3,0*%
G04 Aperture macros list end*
%TA.AperFunction,BGAPad,CuDef*%
%ADD10C,0.400000*%
%TD*%
%TA.AperFunction,BGAPad,CuDef*%
%ADD11C,0.360000*%
%TD*%
%TA.AperFunction,ComponentPad*%
%ADD12C,0.500000*%
%TD*%
%TA.AperFunction,ComponentPad*%
%ADD13C,0.550000*%
%TD*%
%TA.AperFunction,ComponentPad*%
%ADD14C,0.600000*%
%TD*%
%TA.AperFunction,ComponentPad*%
%ADD15C,0.650000*%
%TD*%
%TA.AperFunction,ComponentPad*%
%ADD16C,0.700000*%
%TD*%
%TA.AperFunction,ComponentPad*%
%ADD17C,0.750000*%
%TD*%
%TA.AperFunction,ComponentPad*%
%ADD18C,0.850000*%
%TD*%
%TA.AperFunction,ComponentPad*%
%ADD19C,0.900000*%
%TD*%
%TA.AperFunction,ComponentPad*%
%ADD20C,1.000000*%
%TD*%
%TA.AperFunction,ComponentPad*%
%ADD21C,1.100000*%
%TD*%
%TA.AperFunction,ComponentPad*%
%ADD22C,1.200000*%
%TD*%
%TA.AperFunction,ComponentPad*%
%ADD23C,1.350000*%
%TD*%
%TA.AperFunction,ComponentPad*%
%ADD24C,1.500000*%
%TD*%
%TA.AperFunction,ComponentPad*%
%ADD25C,1.650000*%
%TD*%
%TA.AperFunction,ComponentPad*%
%ADD26C,1.850000*%
%TD*%
%TA.AperFunction,ComponentPad*%
%ADD27C,2.000000*%
%TD*%
%TA.AperFunction,ComponentPad*%
%ADD28C,2.200000*%
%TD*%
%TA.AperFunction,ComponentPad*%
%ADD29C,2.500000*%
%TD*%
%TA.AperFunction,ComponentPad*%
%ADD30C,2.800000*%
%TD*%
%TA.AperFunction,ComponentPad*%
%ADD31C,3.100000*%
%TD*%
%TA.AperFunction,ComponentPad*%
%ADD32C,3.450000*%
%TD*%
%TA.AperFunction,SMDPad,CuDef*%
%ADD33RoundRect,0.137500X0.600000X0.137500X-0.600000X0.137500X-0.600000X-0.137500X0.600000X-0.137500X0*%
%TD*%
%TA.AperFunction,SMDPad,CuDef*%
%ADD34RoundRect,0.137500X0.137500X0.600000X-0.137500X0.600000X-0.137500X-0.600000X0.137500X-0.600000X0*%
%TD*%
%TA.AperFunction,SMDPad,CuDef*%
%ADD35RoundRect,0.150000X-0.150000X-0.425000X0.150000X-0.425000X0.150000X0.425000X-0.150000X0.425000X0*%
%TD*%
%TA.AperFunction,SMDPad,CuDef*%
%ADD36RoundRect,0.075000X-0.075000X-0.500000X0.075000X-0.500000X0.075000X0.500000X-0.075000X0.500000X0*%
%TD*%
%TA.AperFunction,SMDPad,CuDef*%
%ADD37O,1.000000X1.800000*%
%TD*%
%TA.AperFunction,SMDPad,CuDef*%
%ADD38O,1.000000X2.100000*%
%TD*%
%TA.AperFunction,SMDPad,CuDef*%
%ADD39O,0.800000X1.500000*%
%TD*%
%TA.AperFunction,SMDPad,CuDef*%
%ADD40O,0.800000X2.000000*%
%TD*%
%TA.AperFunction,SMDPad,CuDef*%
%ADD41R,0.300000X0.750000*%
%TD*%
%TA.AperFunction,SMDPad,CuDef*%
%ADD42O,1.300000X0.500000*%
%TD*%
%TA.AperFunction,SMDPad,CuDef*%
%ADD43C,0.600000*%
%TD*%
%TA.AperFunction,SMDPad,CuDef*%
%ADD44RoundRect,0.500000X0.500000X-0.875000X0.500000X0.875000X-0.500000X0.875000X-0.500000X-0.875000X0*%
%TD*%
%TA.AperFunction,SMDPad,CuDef*%
%ADD45C,1.700000*%
%TD*%
%TA.AperFunction,SMDPad,CuDef*%
%ADD46RoundRect,0.275000X-0.275000X0.975000X-0.275000X-0.975000X0.275000X-0.975000X0.275000X0.975000X0*%
%TD*%
%TA.AperFunction,SMDPad,CuDef*%
%ADD47RoundRect,0.625000X0.625000X-0.750000X0.625000X0.750000X-0.625000X0.750000X-0.625000X-0.750000X0*%
%TD*%
%TA.AperFunction,HeatsinkPad*%
%ADD48R,4.500000X4.500000*%
%TD*%
%TA.AperFunction,Conductor*%
%ADD49C,0.200000*%
%TD*%
G04 APERTURE END LIST*
D10*
%TO.P,REF\u002A\u002A,A1*%
%TO.N,N/C*%
X163300000Y-103900000D03*
%TO.P,REF\u002A\u002A,A2*%
X162500000Y-103900000D03*
%TO.P,REF\u002A\u002A,A3*%
X161700000Y-103900000D03*
%TO.P,REF\u002A\u002A,A4*%
X160900000Y-103900000D03*
%TO.P,REF\u002A\u002A,A5*%
X160100000Y-103900000D03*
%TO.P,REF\u002A\u002A,A6*%
X159300000Y-103900000D03*
%TO.P,REF\u002A\u002A,A7*%
X158500000Y-103900000D03*
%TO.P,REF\u002A\u002A,A8*%
X157700000Y-103900000D03*
%TO.P,REF\u002A\u002A,A9*%
X156900000Y-103900000D03*
%TO.P,REF\u002A\u002A,A10*%
X156100000Y-103900000D03*
%TO.P,REF\u002A\u002A,A11*%
X155300000Y-103900000D03*
%TO.P,REF\u002A\u002A,A12*%
X154500000Y-103900000D03*
%TO.P,REF\u002A\u002A,A13*%
X153700000Y-103900000D03*
%TO.P,REF\u002A\u002A,A14*%
X152900000Y-103900000D03*
%TO.P,REF\u002A\u002A,A15*%
X152100000Y-103900000D03*
%TO.P,REF\u002A\u002A,A16*%
X151300000Y-103900000D03*
%TO.P,REF\u002A\u002A,A17*%
X150500000Y-103900000D03*
%TO.P,REF\u002A\u002A,A18*%
X149700000Y-103900000D03*
%TO.P,REF\u002A\u002A,A19*%
X148900000Y-103900000D03*
%TO.P,REF\u002A\u002A,A20*%
X148100000Y-103900000D03*
%TO.P,REF\u002A\u002A,A21*%
X147300000Y-103900000D03*
%TO.P,REF\u002A\u002A,A22*%
X146500000Y-103900000D03*
%TO.P,REF\u002A\u002A,A23*%
X145700000Y-103900000D03*
%TO.P,REF\u002A\u002A,AA1*%
X163300000Y-119900000D03*
%TO.P,REF\u002A\u002A,AA2*%
X162500000Y-119900000D03*
%TO.P,REF\u002A\u002A,AA3*%
X161700000Y-119900000D03*
%TO.P,REF\u002A\u002A,AA4*%
X160900000Y-119900000D03*
%TO.P,REF\u002A\u002A,AA5*%
X160100000Y-119900000D03*
%TO.P,REF\u002A\u002A,AA6*%
X159300000Y-119900000D03*
%TO.P,REF\u002A\u002A,AA7*%
X158500000Y-119900000D03*
%TO.P,REF\u002A\u002A,AA8*%
X157700000Y-119900000D03*
%TO.P,REF\u002A\u002A,AA9*%
X156900000Y-119900000D03*
%TO.P,REF\u002A\u002A,AA10*%
X156100000Y-119900000D03*
%TO.P,REF\u002A\u002A,AA11*%
X155300000Y-119900000D03*
%TO.P,REF\u002A\u002A,AA12*%
X154500000Y-119900000D03*
%TO.P,REF\u002A\u002A,AA13*%
X153700000Y-119900000D03*
%TO.P,REF\u002A\u002A,AA14*%
X152900000Y-119900000D03*
%TO.P,REF\u002A\u002A,AA15*%
X152100000Y-119900000D03*
%TO.P,REF\u002A\u002A,AA16*%
X151300000Y-119900000D03*
%TO.P,REF\u002A\u002A,AA17*%
X150500000Y-119900000D03*
%TO.P,REF\u002A\u002A,AA18*%
X149700000Y-119900000D03*
%TO.P,REF\u002A\u002A,AA19*%
X148900000Y-119900000D03*
%TO.P,REF\u002A\u002A,AA20*%
X148100000Y-119900000D03*
%TO.P,REF\u002A\u002A,AA21*%
X147300000Y-119900000D03*
%TO.P,REF\u002A\u002A,AA22*%
X146500000Y-119900000D03*
%TO.P,REF\u002A\u002A,AA23*%
X145700000Y-119900000D03*
%TO.P,REF\u002A\u002A,AB1*%
X163300000Y-120700000D03*
%TO.P,REF\u002A\u002A,AB2*%
X162500000Y-120700000D03*
%TO.P,REF\u002A\u002A,AB3*%
X161700000Y-120700000D03*
%TO.P,REF\u002A\u002A,AB4*%
X160900000Y-120700000D03*
%TO.P,REF\u002A\u002A,AB5*%
X160100000Y-120700000D03*
%TO.P,REF\u002A\u002A,AB6*%
X159300000Y-120700000D03*
%TO.P,REF\u002A\u002A,AB7*%
X158500000Y-120700000D03*
%TO.P,REF\u002A\u002A,AB8*%
X157700000Y-120700000D03*
%TO.P,REF\u002A\u002A,AB9*%
X156900000Y-120700000D03*
%TO.P,REF\u002A\u002A,AB10*%
X156100000Y-120700000D03*
%TO.P,REF\u002A\u002A,AB11*%
X155300000Y-120700000D03*
%TO.P,REF\u002A\u002A,AB12*%
X154500000Y-120700000D03*
%TO.P,REF\u002A\u002A,AB13*%
X153700000Y-120700000D03*
%TO.P,REF\u002A\u002A,AB14*%
X152900000Y-120700000D03*
%TO.P,REF\u002A\u002A,AB15*%
X152100000Y-120700000D03*
%TO.P,REF\u002A\u002A,AB16*%
X151300000Y-120700000D03*
%TO.P,REF\u002A\u002A,AB17*%
X150500000Y-120700000D03*
%TO.P,REF\u002A\u002A,AB18*%
X149700000Y-120700000D03*
%TO.P,REF\u002A\u002A,AB19*%
X148900000Y-120700000D03*
%TO.P,REF\u002A\u002A,AB20*%
X148100000Y-120700000D03*
%TO.P,REF\u002A\u002A,AB21*%
X147300000Y-120700000D03*
%TO.P,REF\u002A\u002A,AB22*%
X146500000Y-120700000D03*
%TO.P,REF\u002A\u002A,AB23*%
X145700000Y-120700000D03*
%TO.P,REF\u002A\u002A,AC1*%
X163300000Y-121500000D03*
%TO.P,REF\u002A\u002A,AC2*%
X162500000Y-121500000D03*
%TO.P,REF\u002A\u002A,AC3*%
X161700000Y-121500000D03*
%TO.P,REF\u002A\u002A,AC4*%
X160900000Y-121500000D03*
%TO.P,REF\u002A\u002A,AC5*%
X160100000Y-121500000D03*
%TO.P,REF\u002A\u002A,AC6*%
X159300000Y-121500000D03*
%TO.P,REF\u002A\u002A,AC7*%
X158500000Y-121500000D03*
%TO.P,REF\u002A\u002A,AC8*%
X157700000Y-121500000D03*
%TO.P,REF\u002A\u002A,AC9*%
X156900000Y-121500000D03*
%TO.P,REF\u002A\u002A,AC10*%
X156100000Y-121500000D03*
%TO.P,REF\u002A\u002A,AC11*%
X155300000Y-121500000D03*
%TO.P,REF\u002A\u002A,AC12*%
X154500000Y-121500000D03*
%TO.P,REF\u002A\u002A,AC13*%
X153700000Y-121500000D03*
%TO.P,REF\u002A\u002A,AC14*%
X152900000Y-121500000D03*
%TO.P,REF\u002A\u002A,AC15*%
X152100000Y-121500000D03*
%TO.P,REF\u002A\u002A,AC16*%
X151300000Y-121500000D03*
%TO.P,REF\u002A\u002A,AC17*%
X150500000Y-121500000D03*
%TO.P,REF\u002A\u002A,AC18*%
X149700000Y-121500000D03*
%TO.P,REF\u002A\u002A,AC19*%
X148900000Y-121500000D03*
%TO.P,REF\u002A\u002A,AC20*%
X148100000Y-121500000D03*
%TO.P,REF\u002A\u002A,AC21*%
X147300000Y-121500000D03*
%TO.P,REF\u002A\u002A,AC22*%
X146500000Y-121500000D03*
%TO.P,REF\u002A\u002A,AC23*%
X145700000Y-121500000D03*
%TO.P,REF\u002A\u002A,B1*%
X163300000Y-104700000D03*
%TO.P,REF\u002A\u002A,B2*%
X162500000Y-104700000D03*
%TO.P,REF\u002A\u002A,B3*%
X161700000Y-104700000D03*
%TO.P,REF\u002A\u002A,B4*%
X160900000Y-104700000D03*
%TO.P,REF\u002A\u002A,B5*%
X160100000Y-104700000D03*
%TO.P,REF\u002A\u002A,B6*%
X159300000Y-104700000D03*
%TO.P,REF\u002A\u002A,B7*%
X158500000Y-104700000D03*
%TO.P,REF\u002A\u002A,B8*%
X157700000Y-104700000D03*
%TO.P,REF\u002A\u002A,B9*%
X156900000Y-104700000D03*
%TO.P,REF\u002A\u002A,B10*%
X156100000Y-104700000D03*
%TO.P,REF\u002A\u002A,B11*%
X155300000Y-104700000D03*
%TO.P,REF\u002A\u002A,B12*%
X154500000Y-104700000D03*
%TO.P,REF\u002A\u002A,B13*%
X153700000Y-104700000D03*
%TO.P,REF\u002A\u002A,B14*%
X152900000Y-104700000D03*
%TO.P,REF\u002A\u002A,B15*%
X152100000Y-104700000D03*
%TO.P,REF\u002A\u002A,B16*%
X151300000Y-104700000D03*
%TO.P,REF\u002A\u002A,B17*%
X150500000Y-104700000D03*
%TO.P,REF\u002A\u002A,B18*%
X149700000Y-104700000D03*
%TO.P,REF\u002A\u002A,B19*%
X148900000Y-104700000D03*
%TO.P,REF\u002A\u002A,B20*%
X148100000Y-104700000D03*
%TO.P,REF\u002A\u002A,B21*%
X147300000Y-104700000D03*
%TO.P,REF\u002A\u002A,B22*%
X146500000Y-104700000D03*
%TO.P,REF\u002A\u002A,B23*%
X145700000Y-104700000D03*
%TO.P,REF\u002A\u002A,C1*%
X163300000Y-105500000D03*
%TO.P,REF\u002A\u002A,C2*%
X162500000Y-105500000D03*
%TO.P,REF\u002A\u002A,C3*%
X161700000Y-105500000D03*
%TO.P,REF\u002A\u002A,C4*%
X160900000Y-105500000D03*
%TO.P,REF\u002A\u002A,C5*%
X160100000Y-105500000D03*
%TO.P,REF\u002A\u002A,C6*%
X159300000Y-105500000D03*
%TO.P,REF\u002A\u002A,C7*%
X158500000Y-105500000D03*
%TO.P,REF\u002A\u002A,C8*%
X157700000Y-105500000D03*
%TO.P,REF\u002A\u002A,C9*%
X156900000Y-105500000D03*
%TO.P,REF\u002A\u002A,C10*%
X156100000Y-105500000D03*
%TO.P,REF\u002A\u002A,C11*%
X155300000Y-105500000D03*
%TO.P,REF\u002A\u002A,C12*%
X154500000Y-105500000D03*
%TO.P,REF\u002A\u002A,C13*%
X153700000Y-105500000D03*
%TO.P,REF\u002A\u002A,C14*%
X152900000Y-105500000D03*
%TO.P,REF\u002A\u002A,C15*%
X152100000Y-105500000D03*
%TO.P,REF\u002A\u002A,C16*%
X151300000Y-105500000D03*
%TO.P,REF\u002A\u002A,C17*%
X150500000Y-105500000D03*
%TO.P,REF\u002A\u002A,C18*%
X149700000Y-105500000D03*
%TO.P,REF\u002A\u002A,C19*%
X148900000Y-105500000D03*
%TO.P,REF\u002A\u002A,C20*%
X148100000Y-105500000D03*
%TO.P,REF\u002A\u002A,C21*%
X147300000Y-105500000D03*
%TO.P,REF\u002A\u002A,C22*%
X146500000Y-105500000D03*
%TO.P,REF\u002A\u002A,C23*%
X145700000Y-105500000D03*
%TO.P,REF\u002A\u002A,D1*%
X163300000Y-106300000D03*
%TO.P,REF\u002A\u002A,D2*%
X162500000Y-106300000D03*
%TO.P,REF\u002A\u002A,D3*%
X161700000Y-106300000D03*
%TO.P,REF\u002A\u002A,D4*%
X160900000Y-106300000D03*
%TO.P,REF\u002A\u002A,D5*%
X160100000Y-106300000D03*
%TO.P,REF\u002A\u002A,D6*%
X159300000Y-106300000D03*
%TO.P,REF\u002A\u002A,D7*%
X158500000Y-106300000D03*
%TO.P,REF\u002A\u002A,D8*%
X157700000Y-106300000D03*
%TO.P,REF\u002A\u002A,D9*%
X156900000Y-106300000D03*
%TO.P,REF\u002A\u002A,D10*%
X156100000Y-106300000D03*
%TO.P,REF\u002A\u002A,D11*%
X155300000Y-106300000D03*
%TO.P,REF\u002A\u002A,D12*%
X154500000Y-106300000D03*
%TO.P,REF\u002A\u002A,D13*%
X153700000Y-106300000D03*
%TO.P,REF\u002A\u002A,D14*%
X152900000Y-106300000D03*
%TO.P,REF\u002A\u002A,D15*%
X152100000Y-106300000D03*
%TO.P,REF\u002A\u002A,D16*%
X151300000Y-106300000D03*
%TO.P,REF\u002A\u002A,D17*%
X150500000Y-106300000D03*
%TO.P,REF\u002A\u002A,D18*%
X149700000Y-106300000D03*
%TO.P,REF\u002A\u002A,D19*%
X148900000Y-106300000D03*
%TO.P,REF\u002A\u002A,D20*%
X148100000Y-106300000D03*
%TO.P,REF\u002A\u002A,D21*%
X147300000Y-106300000D03*
%TO.P,REF\u002A\u002A,D22*%
X146500000Y-106300000D03*
%TO.P,REF\u002A\u002A,D23*%
X145700000Y-106300000D03*
%TO.P,REF\u002A\u002A,E1*%
X163300000Y-107100000D03*
%TO.P,REF\u002A\u002A,E2*%
X162500000Y-107100000D03*
%TO.P,REF\u002A\u002A,E3*%
X161700000Y-107100000D03*
%TO.P,REF\u002A\u002A,E4*%
X160900000Y-107100000D03*
%TO.P,REF\u002A\u002A,E5*%
X160100000Y-107100000D03*
%TO.P,REF\u002A\u002A,E6*%
X159300000Y-107100000D03*
%TO.P,REF\u002A\u002A,E7*%
X158500000Y-107100000D03*
%TO.P,REF\u002A\u002A,E8*%
X157700000Y-107100000D03*
%TO.P,REF\u002A\u002A,E9*%
X156900000Y-107100000D03*
%TO.P,REF\u002A\u002A,E10*%
X156100000Y-107100000D03*
%TO.P,REF\u002A\u002A,E11*%
X155300000Y-107100000D03*
%TO.P,REF\u002A\u002A,E12*%
X154500000Y-107100000D03*
%TO.P,REF\u002A\u002A,E13*%
X153700000Y-107100000D03*
%TO.P,REF\u002A\u002A,E14*%
X152900000Y-107100000D03*
%TO.P,REF\u002A\u002A,E15*%
X152100000Y-107100000D03*
%TO.P,REF\u002A\u002A,E16*%
X151300000Y-107100000D03*
%TO.P,REF\u002A\u002A,E17*%
X150500000Y-107100000D03*
%TO.P,REF\u002A\u002A,E18*%
X149700000Y-107100000D03*
%TO.P,REF\u002A\u002A,E19*%
X148900000Y-107100000D03*
%TO.P,REF\u002A\u002A,E20*%
X148100000Y-107100000D03*
%TO.P,REF\u002A\u002A,E21*%
X147300000Y-107100000D03*
%TO.P,REF\u002A\u002A,E22*%
X146500000Y-107100000D03*
%TO.P,REF\u002A\u002A,E23*%
X145700000Y-107100000D03*
%TO.P,REF\u002A\u002A,F1*%
X163300000Y-107900000D03*
%TO.P,REF\u002A\u002A,F2*%
X162500000Y-107900000D03*
%TO.P,REF\u002A\u002A,F3*%
X161700000Y-107900000D03*
%TO.P,REF\u002A\u002A,F4*%
X160900000Y-107900000D03*
%TO.P,REF\u002A\u002A,F5*%
X160100000Y-107900000D03*
%TO.P,REF\u002A\u002A,F6*%
X159300000Y-107900000D03*
%TO.P,REF\u002A\u002A,F7*%
X158500000Y-107900000D03*
%TO.P,REF\u002A\u002A,F8*%
X157700000Y-107900000D03*
%TO.P,REF\u002A\u002A,F9*%
X156900000Y-107900000D03*
%TO.P,REF\u002A\u002A,F10*%
X156100000Y-107900000D03*
%TO.P,REF\u002A\u002A,F11*%
X155300000Y-107900000D03*
%TO.P,REF\u002A\u002A,F12*%
X154500000Y-107900000D03*
%TO.P,REF\u002A\u002A,F13*%
X153700000Y-107900000D03*
%TO.P,REF\u002A\u002A,F14*%
X152900000Y-107900000D03*
%TO.P,REF\u002A\u002A,F15*%
X152100000Y-107900000D03*
%TO.P,REF\u002A\u002A,F16*%
X151300000Y-107900000D03*
%TO.P,REF\u002A\u002A,F17*%
X150500000Y-107900000D03*
%TO.P,REF\u002A\u002A,F18*%
X149700000Y-107900000D03*
%TO.P,REF\u002A\u002A,F19*%
X148900000Y-107900000D03*
%TO.P,REF\u002A\u002A,F20*%
X148100000Y-107900000D03*
%TO.P,REF\u002A\u002A,F21*%
X147300000Y-107900000D03*
%TO.P,REF\u002A\u002A,F22*%
X146500000Y-107900000D03*
%TO.P,REF\u002A\u002A,F23*%
X145700000Y-107900000D03*
%TO.P,REF\u002A\u002A,G1*%
X163300000Y-108700000D03*
%TO.P,REF\u002A\u002A,G2*%
X162500000Y-108700000D03*
%TO.P,REF\u002A\u002A,G3*%
X161700000Y-108700000D03*
%TO.P,REF\u002A\u002A,G4*%
X160900000Y-108700000D03*
%TO.P,REF\u002A\u002A,G5*%
X160100000Y-108700000D03*
%TO.P,REF\u002A\u002A,G6*%
X159300000Y-108700000D03*
%TO.P,REF\u002A\u002A,G7*%
X158500000Y-108700000D03*
%TO.P,REF\u002A\u002A,G8*%
X157700000Y-108700000D03*
%TO.P,REF\u002A\u002A,G9*%
X156900000Y-108700000D03*
%TO.P,REF\u002A\u002A,G10*%
X156100000Y-108700000D03*
%TO.P,REF\u002A\u002A,G11*%
X155300000Y-108700000D03*
%TO.P,REF\u002A\u002A,G12*%
X154500000Y-108700000D03*
%TO.P,REF\u002A\u002A,G13*%
X153700000Y-108700000D03*
%TO.P,REF\u002A\u002A,G14*%
X152900000Y-108700000D03*
%TO.P,REF\u002A\u002A,G15*%
X152100000Y-108700000D03*
%TO.P,REF\u002A\u002A,G16*%
X151300000Y-108700000D03*
%TO.P,REF\u002A\u002A,G17*%
X150500000Y-108700000D03*
%TO.P,REF\u002A\u002A,G18*%
X149700000Y-108700000D03*
%TO.P,REF\u002A\u002A,G19*%
X148900000Y-108700000D03*
%TO.P,REF\u002A\u002A,G20*%
X148100000Y-108700000D03*
%TO.P,REF\u002A\u002A,G21*%
X147300000Y-108700000D03*
%TO.P,REF\u002A\u002A,G22*%
X146500000Y-108700000D03*
%TO.P,REF\u002A\u002A,G23*%
X145700000Y-108700000D03*
%TO.P,REF\u002A\u002A,H1*%
X163300000Y-109500000D03*
%TO.P,REF\u002A\u002A,H2*%
X162500000Y-109500000D03*
%TO.P,REF\u002A\u002A,H3*%
X161700000Y-109500000D03*
%TO.P,REF\u002A\u002A,H4*%
X160900000Y-109500000D03*
%TO.P,REF\u002A\u002A,H5*%
X160100000Y-109500000D03*
%TO.P,REF\u002A\u002A,H6*%
X159300000Y-109500000D03*
%TO.P,REF\u002A\u002A,H7*%
X158500000Y-109500000D03*
%TO.P,REF\u002A\u002A,H8*%
X157700000Y-109500000D03*
%TO.P,REF\u002A\u002A,H9*%
X156900000Y-109500000D03*
%TO.P,REF\u002A\u002A,H10*%
X156100000Y-109500000D03*
%TO.P,REF\u002A\u002A,H11*%
X155300000Y-109500000D03*
%TO.P,REF\u002A\u002A,H12*%
X154500000Y-109500000D03*
%TO.P,REF\u002A\u002A,H13*%
X153700000Y-109500000D03*
%TO.P,REF\u002A\u002A,H14*%
X152900000Y-109500000D03*
%TO.P,REF\u002A\u002A,H15*%
X152100000Y-109500000D03*
%TO.P,REF\u002A\u002A,H16*%
X151300000Y-109500000D03*
%TO.P,REF\u002A\u002A,H17*%
X150500000Y-109500000D03*
%TO.P,REF\u002A\u002A,H18*%
X149700000Y-109500000D03*
%TO.P,REF\u002A\u002A,H19*%
X148900000Y-109500000D03*
%TO.P,REF\u002A\u002A,H20*%
X148100000Y-109500000D03*
%TO.P,REF\u002A\u002A,H21*%
X147300000Y-109500000D03*
%TO.P,REF\u002A\u002A,H22*%
X146500000Y-109500000D03*
%TO.P,REF\u002A\u002A,H23*%
X145700000Y-109500000D03*
%TO.P,REF\u002A\u002A,J1*%
X163300000Y-110300000D03*
%TO.P,REF\u002A\u002A,J2*%
X162500000Y-110300000D03*
%TO.P,REF\u002A\u002A,J3*%
X161700000Y-110300000D03*
%TO.P,REF\u002A\u002A,J4*%
X160900000Y-110300000D03*
%TO.P,REF\u002A\u002A,J5*%
X160100000Y-110300000D03*
%TO.P,REF\u002A\u002A,J6*%
X159300000Y-110300000D03*
%TO.P,REF\u002A\u002A,J7*%
X158500000Y-110300000D03*
%TO.P,REF\u002A\u002A,J8*%
X157700000Y-110300000D03*
%TO.P,REF\u002A\u002A,J9*%
X156900000Y-110300000D03*
%TO.P,REF\u002A\u002A,J10*%
X156100000Y-110300000D03*
%TO.P,REF\u002A\u002A,J11*%
X155300000Y-110300000D03*
%TO.P,REF\u002A\u002A,J12*%
X154500000Y-110300000D03*
%TO.P,REF\u002A\u002A,J13*%
X153700000Y-110300000D03*
%TO.P,REF\u002A\u002A,J14*%
X152900000Y-110300000D03*
%TO.P,REF\u002A\u002A,J15*%
X152100000Y-110300000D03*
%TO.P,REF\u002A\u002A,J16*%
X151300000Y-110300000D03*
%TO.P,REF\u002A\u002A,J17*%
X150500000Y-110300000D03*
%TO.P,REF\u002A\u002A,J18*%
X149700000Y-110300000D03*
%TO.P,REF\u002A\u002A,J19*%
X148900000Y-110300000D03*
%TO.P,REF\u002A\u002A,J20*%
X148100000Y-110300000D03*
%TO.P,REF\u002A\u002A,J21*%
X147300000Y-110300000D03*
%TO.P,REF\u002A\u002A,J22*%
X146500000Y-110300000D03*
%TO.P,REF\u002A\u002A,J23*%
X145700000Y-110300000D03*
%TO.P,REF\u002A\u002A,K1*%
X163300000Y-111100000D03*
%TO.P,REF\u002A\u002A,K2*%
X162500000Y-111100000D03*
%TO.P,REF\u002A\u002A,K3*%
X161700000Y-111100000D03*
%TO.P,REF\u002A\u002A,K4*%
X160900000Y-111100000D03*
%TO.P,REF\u002A\u002A,K5*%
X160100000Y-111100000D03*
%TO.P,REF\u002A\u002A,K6*%
X159300000Y-111100000D03*
%TO.P,REF\u002A\u002A,K7*%
X158500000Y-111100000D03*
%TO.P,REF\u002A\u002A,K8*%
X157700000Y-111100000D03*
%TO.P,REF\u002A\u002A,K9*%
X156900000Y-111100000D03*
%TO.P,REF\u002A\u002A,K10*%
X156100000Y-111100000D03*
%TO.P,REF\u002A\u002A,K11*%
X155300000Y-111100000D03*
%TO.P,REF\u002A\u002A,K12*%
X154500000Y-111100000D03*
%TO.P,REF\u002A\u002A,K13*%
X153700000Y-111100000D03*
%TO.P,REF\u002A\u002A,K14*%
X152900000Y-111100000D03*
%TO.P,REF\u002A\u002A,K15*%
X152100000Y-111100000D03*
%TO.P,REF\u002A\u002A,K16*%
X151300000Y-111100000D03*
%TO.P,REF\u002A\u002A,K17*%
X150500000Y-111100000D03*
%TO.P,REF\u002A\u002A,K18*%
X149700000Y-111100000D03*
%TO.P,REF\u002A\u002A,K19*%
X148900000Y-111100000D03*
%TO.P,REF\u002A\u002A,K20*%
X148100000Y-111100000D03*
%TO.P,REF\u002A\u002A,K21*%
X147300000Y-111100000D03*
%TO.P,REF\u002A\u002A,K22*%
X146500000Y-111100000D03*
%TO.P,REF\u002A\u002A,K23*%
X145700000Y-111100000D03*
%TO.P,REF\u002A\u002A,L1*%
X163300000Y-111900000D03*
%TO.P,REF\u002A\u002A,L2*%
X162500000Y-111900000D03*
%TO.P,REF\u002A\u002A,L3*%
X161700000Y-111900000D03*
%TO.P,REF\u002A\u002A,L4*%
X160900000Y-111900000D03*
%TO.P,REF\u002A\u002A,L5*%
X160100000Y-111900000D03*
%TO.P,REF\u002A\u002A,L6*%
X159300000Y-111900000D03*
%TO.P,REF\u002A\u002A,L7*%
X158500000Y-111900000D03*
%TO.P,REF\u002A\u002A,L8*%
X157700000Y-111900000D03*
%TO.P,REF\u002A\u002A,L9*%
X156900000Y-111900000D03*
%TO.P,REF\u002A\u002A,L10*%
X156100000Y-111900000D03*
%TO.P,REF\u002A\u002A,L11*%
X155300000Y-111900000D03*
%TO.P,REF\u002A\u002A,L12*%
X154500000Y-111900000D03*
%TO.P,REF\u002A\u002A,L13*%
X153700000Y-111900000D03*
%TO.P,REF\u002A\u002A,L14*%
X152900000Y-111900000D03*
%TO.P,REF\u002A\u002A,L15*%
X152100000Y-111900000D03*
%TO.P,REF\u002A\u002A,L16*%
X151300000Y-111900000D03*
%TO.P,REF\u002A\u002A,L17*%
X150500000Y-111900000D03*
%TO.P,REF\u002A\u002A,L18*%
X149700000Y-111900000D03*
%TO.P,REF\u002A\u002A,L19*%
X148900000Y-111900000D03*
%TO.P,REF\u002A\u002A,L20*%
X148100000Y-111900000D03*
%TO.P,REF\u002A\u002A,L21*%
X147300000Y-111900000D03*
%TO.P,REF\u002A\u002A,L22*%
X146500000Y-111900000D03*
%TO.P,REF\u002A\u002A,L23*%
X145700000Y-111900000D03*
%TO.P,REF\u002A\u002A,M1*%
X163300000Y-112700000D03*
%TO.P,REF\u002A\u002A,M2*%
X162500000Y-112700000D03*
%TO.P,REF\u002A\u002A,M3*%
X161700000Y-112700000D03*
%TO.P,REF\u002A\u002A,M4*%
X160900000Y-112700000D03*
%TO.P,REF\u002A\u002A,M5*%
X160100000Y-112700000D03*
%TO.P,REF\u002A\u002A,M6*%
X159300000Y-112700000D03*
%TO.P,REF\u002A\u002A,M7*%
X158500000Y-112700000D03*
%TO.P,REF\u002A\u002A,M8*%
X157700000Y-112700000D03*
%TO.P,REF\u002A\u002A,M9*%
X156900000Y-112700000D03*
%TO.P,REF\u002A\u002A,M10*%
X156100000Y-112700000D03*
%TO.P,REF\u002A\u002A,M11*%
X155300000Y-112700000D03*
%TO.P,REF\u002A\u002A,M12*%
X154500000Y-112700000D03*
%TO.P,REF\u002A\u002A,M13*%
X153700000Y-112700000D03*
%TO.P,REF\u002A\u002A,M14*%
X152900000Y-112700000D03*
%TO.P,REF\u002A\u002A,M15*%
X152100000Y-112700000D03*
%TO.P,REF\u002A\u002A,M16*%
X151300000Y-112700000D03*
%TO.P,REF\u002A\u002A,M17*%
X150500000Y-112700000D03*
%TO.P,REF\u002A\u002A,M18*%
X149700000Y-112700000D03*
%TO.P,REF\u002A\u002A,M19*%
X148900000Y-112700000D03*
%TO.P,REF\u002A\u002A,M20*%
X148100000Y-112700000D03*
%TO.P,REF\u002A\u002A,M21*%
X147300000Y-112700000D03*
%TO.P,REF\u002A\u002A,M22*%
X146500000Y-112700000D03*
%TO.P,REF\u002A\u002A,M23*%
X145700000Y-112700000D03*
%TO.P,REF\u002A\u002A,N1*%
X163300000Y-113500000D03*
%TO.P,REF\u002A\u002A,N2*%
X162500000Y-113500000D03*
%TO.P,REF\u002A\u002A,N3*%
X161700000Y-113500000D03*
%TO.P,REF\u002A\u002A,N4*%
X160900000Y-113500000D03*
%TO.P,REF\u002A\u002A,N5*%
X160100000Y-113500000D03*
%TO.P,REF\u002A\u002A,N6*%
X159300000Y-113500000D03*
%TO.P,REF\u002A\u002A,N7*%
X158500000Y-113500000D03*
%TO.P,REF\u002A\u002A,N8*%
X157700000Y-113500000D03*
%TO.P,REF\u002A\u002A,N9*%
X156900000Y-113500000D03*
%TO.P,REF\u002A\u002A,N10*%
X156100000Y-113500000D03*
%TO.P,REF\u002A\u002A,N11*%
X155300000Y-113500000D03*
%TO.P,REF\u002A\u002A,N12*%
X154500000Y-113500000D03*
%TO.P,REF\u002A\u002A,N13*%
X153700000Y-113500000D03*
%TO.P,REF\u002A\u002A,N14*%
X152900000Y-113500000D03*
%TO.P,REF\u002A\u002A,N15*%
X152100000Y-113500000D03*
%TO.P,REF\u002A\u002A,N16*%
X151300000Y-113500000D03*
%TO.P,REF\u002A\u002A,N17*%
X150500000Y-113500000D03*
%TO.P,REF\u002A\u002A,N18*%
X149700000Y-113500000D03*
%TO.P,REF\u002A\u002A,N19*%
X148900000Y-113500000D03*
%TO.P,REF\u002A\u002A,N20*%
X148100000Y-113500000D03*
%TO.P,REF\u002A\u002A,N21*%
X147300000Y-113500000D03*
%TO.P,REF\u002A\u002A,N22*%
X146500000Y-113500000D03*
%TO.P,REF\u002A\u002A,N23*%
X145700000Y-113500000D03*
%TO.P,REF\u002A\u002A,P1*%
X163300000Y-114300000D03*
%TO.P,REF\u002A\u002A,P2*%
X162500000Y-114300000D03*
%TO.P,REF\u002A\u002A,P3*%
X161700000Y-114300000D03*
%TO.P,REF\u002A\u002A,P4*%
X160900000Y-114300000D03*
%TO.P,REF\u002A\u002A,P5*%
X160100000Y-114300000D03*
%TO.P,REF\u002A\u002A,P6*%
X159300000Y-114300000D03*
%TO.P,REF\u002A\u002A,P7*%
X158500000Y-114300000D03*
%TO.P,REF\u002A\u002A,P8*%
X157700000Y-114300000D03*
%TO.P,REF\u002A\u002A,P9*%
X156900000Y-114300000D03*
%TO.P,REF\u002A\u002A,P10*%
X156100000Y-114300000D03*
%TO.P,REF\u002A\u002A,P11*%
X155300000Y-114300000D03*
%TO.P,REF\u002A\u002A,P12*%
X154500000Y-114300000D03*
%TO.P,REF\u002A\u002A,P13*%
X153700000Y-114300000D03*
%TO.P,REF\u002A\u002A,P14*%
X152900000Y-114300000D03*
%TO.P,REF\u002A\u002A,P15*%
X152100000Y-114300000D03*
%TO.P,REF\u002A\u002A,P16*%
X151300000Y-114300000D03*
%TO.P,REF\u002A\u002A,P17*%
X150500000Y-114300000D03*
%TO.P,REF\u002A\u002A,P18*%
X149700000Y-114300000D03*
%TO.P,REF\u002A\u002A,P19*%
X148900000Y-114300000D03*
%TO.P,REF\u002A\u002A,P20*%
X148100000Y-114300000D03*
%TO.P,REF\u002A\u002A,P21*%
X147300000Y-114300000D03*
%TO.P,REF\u002A\u002A,P22*%
X146500000Y-114300000D03*
%TO.P,REF\u002A\u002A,P23*%
X145700000Y-114300000D03*
%TO.P,REF\u002A\u002A,R1*%
X163300000Y-115100000D03*
%TO.P,REF\u002A\u002A,R2*%
X162500000Y-115100000D03*
%TO.P,REF\u002A\u002A,R3*%
X161700000Y-115100000D03*
%TO.P,REF\u002A\u002A,R4*%
X160900000Y-115100000D03*
%TO.P,REF\u002A\u002A,R5*%
X160100000Y-115100000D03*
%TO.P,REF\u002A\u002A,R6*%
X159300000Y-115100000D03*
%TO.P,REF\u002A\u002A,R7*%
X158500000Y-115100000D03*
%TO.P,REF\u002A\u002A,R8*%
X157700000Y-115100000D03*
%TO.P,REF\u002A\u002A,R9*%
X156900000Y-115100000D03*
%TO.P,REF\u002A\u002A,R10*%
X156100000Y-115100000D03*
%TO.P,REF\u002A\u002A,R11*%
X155300000Y-115100000D03*
%TO.P,REF\u002A\u002A,R12*%
X154500000Y-115100000D03*
%TO.P,REF\u002A\u002A,R13*%
X153700000Y-115100000D03*
%TO.P,REF\u002A\u002A,R14*%
X152900000Y-115100000D03*
%TO.P,REF\u002A\u002A,R15*%
X152100000Y-115100000D03*
%TO.P,REF\u002A\u002A,R16*%
X151300000Y-115100000D03*
%TO.P,REF\u002A\u002A,R17*%
X150500000Y-115100000D03*
%TO.P,REF\u002A\u002A,R18*%
X149700000Y-115100000D03*
%TO.P,REF\u002A\u002A,R19*%
X148900000Y-115100000D03*
%TO.P,REF\u002A\u002A,R20*%
X148100000Y-115100000D03*
%TO.P,REF\u002A\u002A,R21*%
X147300000Y-115100000D03*
%TO.P,REF\u002A\u002A,R22*%
X146500000Y-115100000D03*
%TO.P,REF\u002A\u002A,R23*%
X145700000Y-115100000D03*
%TO.P,REF\u002A\u002A,T1*%
X163300000Y-115900000D03*
%TO.P,REF\u002A\u002A,T2*%
X162500000Y-115900000D03*
%TO.P,REF\u002A\u002A,T3*%
X161700000Y-115900000D03*
%TO.P,REF\u002A\u002A,T4*%
X160900000Y-115900000D03*
%TO.P,REF\u002A\u002A,T5*%
X160100000Y-115900000D03*
%TO.P,REF\u002A\u002A,T6*%
X159300000Y-115900000D03*
%TO.P,REF\u002A\u002A,T7*%
X158500000Y-115900000D03*
%TO.P,REF\u002A\u002A,T8*%
X157700000Y-115900000D03*
%TO.P,REF\u002A\u002A,T9*%
X156900000Y-115900000D03*
%TO.P,REF\u002A\u002A,T10*%
X156100000Y-115900000D03*
%TO.P,REF\u002A\u002A,T11*%
X155300000Y-115900000D03*
%TO.P,REF\u002A\u002A,T12*%
X154500000Y-115900000D03*
%TO.P,REF\u002A\u002A,T13*%
X153700000Y-115900000D03*
%TO.P,REF\u002A\u002A,T14*%
X152900000Y-115900000D03*
%TO.P,REF\u002A\u002A,T15*%
X152100000Y-115900000D03*
%TO.P,REF\u002A\u002A,T16*%
X151300000Y-115900000D03*
%TO.P,REF\u002A\u002A,T17*%
X150500000Y-115900000D03*
%TO.P,REF\u002A\u002A,T18*%
X149700000Y-115900000D03*
%TO.P,REF\u002A\u002A,T19*%
X148900000Y-115900000D03*
%TO.P,REF\u002A\u002A,T20*%
X148100000Y-115900000D03*
%TO.P,REF\u002A\u002A,T21*%
X147300000Y-115900000D03*
%TO.P,REF\u002A\u002A,T22*%
X146500000Y-115900000D03*
%TO.P,REF\u002A\u002A,T23*%
X145700000Y-115900000D03*
%TO.P,REF\u002A\u002A,U1*%
X163300000Y-116700000D03*
%TO.P,REF\u002A\u002A,U2*%
X162500000Y-116700000D03*
%TO.P,REF\u002A\u002A,U3*%
X161700000Y-116700000D03*
%TO.P,REF\u002A\u002A,U4*%
X160900000Y-116700000D03*
%TO.P,REF\u002A\u002A,U5*%
X160100000Y-116700000D03*
%TO.P,REF\u002A\u002A,U6*%
X159300000Y-116700000D03*
%TO.P,REF\u002A\u002A,U7*%
X158500000Y-116700000D03*
%TO.P,REF\u002A\u002A,U8*%
X157700000Y-116700000D03*
%TO.P,REF\u002A\u002A,U9*%
X156900000Y-116700000D03*
%TO.P,REF\u002A\u002A,U10*%
X156100000Y-116700000D03*
%TO.P,REF\u002A\u002A,U11*%
X155300000Y-116700000D03*
%TO.P,REF\u002A\u002A,U12*%
X154500000Y-116700000D03*
%TO.P,REF\u002A\u002A,U13*%
X153700000Y-116700000D03*
%TO.P,REF\u002A\u002A,U14*%
X152900000Y-116700000D03*
%TO.P,REF\u002A\u002A,U15*%
X152100000Y-116700000D03*
%TO.P,REF\u002A\u002A,U16*%
X151300000Y-116700000D03*
%TO.P,REF\u002A\u002A,U17*%
X150500000Y-116700000D03*
%TO.P,REF\u002A\u002A,U18*%
X149700000Y-116700000D03*
%TO.P,REF\u002A\u002A,U19*%
X148900000Y-116700000D03*
%TO.P,REF\u002A\u002A,U20*%
X148100000Y-116700000D03*
%TO.P,REF\u002A\u002A,U21*%
X147300000Y-116700000D03*
%TO.P,REF\u002A\u002A,U22*%
X146500000Y-116700000D03*
%TO.P,REF\u002A\u002A,U23*%
X145700000Y-116700000D03*
%TO.P,REF\u002A\u002A,V1*%
X163300000Y-117500000D03*
%TO.P,REF\u002A\u002A,V2*%
X162500000Y-117500000D03*
%TO.P,REF\u002A\u002A,V3*%
X161700000Y-117500000D03*
%TO.P,REF\u002A\u002A,V4*%
X160900000Y-117500000D03*
%TO.P,REF\u002A\u002A,V5*%
X160100000Y-117500000D03*
%TO.P,REF\u002A\u002A,V6*%
X159300000Y-117500000D03*
%TO.P,REF\u002A\u002A,V7*%
X158500000Y-117500000D03*
%TO.P,REF\u002A\u002A,V8*%
X157700000Y-117500000D03*
%TO.P,REF\u002A\u002A,V9*%
X156900000Y-117500000D03*
%TO.P,REF\u002A\u002A,V10*%
X156100000Y-117500000D03*
%TO.P,REF\u002A\u002A,V11*%
X155300000Y-117500000D03*
%TO.P,REF\u002A\u002A,V12*%
X154500000Y-117500000D03*
%TO.P,REF\u002A\u002A,V13*%
X153700000Y-117500000D03*
%TO.P,REF\u002A\u002A,V14*%
X152900000Y-117500000D03*
%TO.P,REF\u002A\u002A,V15*%
X152100000Y-117500000D03*
%TO.P,REF\u002A\u002A,V16*%
X151300000Y-117500000D03*
%TO.P,REF\u002A\u002A,V17*%
X150500000Y-117500000D03*
%TO.P,REF\u002A\u002A,V18*%
X149700000Y-117500000D03*
%TO.P,REF\u002A\u002A,V19*%
X148900000Y-117500000D03*
%TO.P,REF\u002A\u002A,V20*%
X148100000Y-117500000D03*
%TO.P,REF\u002A\u002A,V21*%
X147300000Y-117500000D03*
%TO.P,REF\u002A\u002A,V22*%
X146500000Y-117500000D03*
%TO.P,REF\u002A\u002A,V23*%
X145700000Y-117500000D03*
%TO.P,REF\u002A\u002A,W1*%
X163300000Y-118300000D03*
%TO.P,REF\u002A\u002A,W2*%
X162500000Y-118300000D03*
%TO.P,REF\u002A\u002A,W3*%
X161700000Y-118300000D03*
%TO.P,REF\u002A\u002A,W4*%
X160900000Y-118300000D03*
%TO.P,REF\u002A\u002A,W5*%
X160100000Y-118300000D03*
%TO.P,REF\u002A\u002A,W6*%
X159300000Y-118300000D03*
%TO.P,REF\u002A\u002A,W7*%
X158500000Y-118300000D03*
%TO.P,REF\u002A\u002A,W8*%
X157700000Y-118300000D03*
%TO.P,REF\u002A\u002A,W9*%
X156900000Y-118300000D03*
%TO.P,REF\u002A\u002A,W10*%
X156100000Y-118300000D03*
%TO.P,REF\u002A\u002A,W11*%
X155300000Y-118300000D03*
%TO.P,REF\u002A\u002A,W12*%
X154500000Y-118300000D03*
%TO.P,REF\u002A\u002A,W13*%
X153700000Y-118300000D03*
%TO.P,REF\u002A\u002A,W14*%
X152900000Y-118300000D03*
%TO.P,REF\u002A\u002A,W15*%
X152100000Y-118300000D03*
%TO.P,REF\u002A\u002A,W16*%
X151300000Y-118300000D03*
%TO.P,REF\u002A\u002A,W17*%
X150500000Y-118300000D03*
%TO.P,REF\u002A\u002A,W18*%
X149700000Y-118300000D03*
%TO.P,REF\u002A\u002A,W19*%
X148900000Y-118300000D03*
%TO.P,REF\u002A\u002A,W20*%
X148100000Y-118300000D03*
%TO.P,REF\u002A\u002A,W21*%
X147300000Y-118300000D03*
%TO.P,REF\u002A\u002A,W22*%
X146500000Y-118300000D03*
%TO.P,REF\u002A\u002A,W23*%
X145700000Y-118300000D03*
%TO.P,REF\u002A\u002A,Y1*%
X163300000Y-119100000D03*
%TO.P,REF\u002A\u002A,Y2*%
X162500000Y-119100000D03*
%TO.P,REF\u002A\u002A,Y3*%
X161700000Y-119100000D03*
%TO.P,REF\u002A\u002A,Y4*%
X160900000Y-119100000D03*
%TO.P,REF\u002A\u002A,Y5*%
X160100000Y-119100000D03*
%TO.P,REF\u002A\u002A,Y6*%
X159300000Y-119100000D03*
%TO.P,REF\u002A\u002A,Y7*%
X158500000Y-119100000D03*
%TO.P,REF\u002A\u002A,Y8*%
X157700000Y-119100000D03*
%TO.P,REF\u002A\u002A,Y9*%
X156900000Y-119100000D03*
%TO.P,REF\u002A\u002A,Y10*%
X156100000Y-119100000D03*
%TO.P,REF\u002A\u002A,Y11*%
X155300000Y-119100000D03*
%TO.P,REF\u002A\u002A,Y12*%
X154500000Y-119100000D03*
%TO.P,REF\u002A\u002A,Y13*%
X153700000Y-119100000D03*
%TO.P,REF\u002A\u002A,Y14*%
X152900000Y-119100000D03*
%TO.P,REF\u002A\u002A,Y15*%
X152100000Y-119100000D03*
%TO.P,REF\u002A\u002A,Y16*%
X151300000Y-119100000D03*
%TO.P,REF\u002A\u002A,Y17*%
X150500000Y-119100000D03*
%TO.P,REF\u002A\u002A,Y18*%
X149700000Y-119100000D03*
%TO.P,REF\u002A\u002A,Y19*%
X148900000Y-119100000D03*
%TO.P,REF\u002A\u002A,Y20*%
X148100000Y-119100000D03*
%TO.P,REF\u002A\u002A,Y21*%
X147300000Y-119100000D03*
%TO.P,REF\u002A\u002A,Y22*%
X146500000Y-119100000D03*
%TO.P,REF\u002A\u002A,Y23*%
X145700000Y-119100000D03*
%TD*%
D11*
%TO.P,REF\u002A\u002A,A1*%
%TO.N,N/C*%
X123200000Y-110900000D03*
%TO.P,REF\u002A\u002A,A2*%
X122400000Y-110900000D03*
%TO.P,REF\u002A\u002A,A3*%
X121600000Y-110900000D03*
%TO.P,REF\u002A\u002A,A7*%
X118400000Y-110900000D03*
%TO.P,REF\u002A\u002A,A8*%
X117600000Y-110900000D03*
%TO.P,REF\u002A\u002A,A9*%
X116800000Y-110900000D03*
%TO.P,REF\u002A\u002A,B1*%
X123200000Y-111700000D03*
%TO.P,REF\u002A\u002A,B2*%
X122400000Y-111700000D03*
%TO.P,REF\u002A\u002A,B3*%
X121600000Y-111700000D03*
%TO.P,REF\u002A\u002A,B7*%
X118400000Y-111700000D03*
%TO.P,REF\u002A\u002A,B8*%
X117600000Y-111700000D03*
%TO.P,REF\u002A\u002A,B9*%
X116800000Y-111700000D03*
%TO.P,REF\u002A\u002A,C1*%
X123200000Y-112500000D03*
%TO.P,REF\u002A\u002A,C2*%
X122400000Y-112500000D03*
%TO.P,REF\u002A\u002A,C3*%
X121600000Y-112500000D03*
%TO.P,REF\u002A\u002A,C7*%
X118400000Y-112500000D03*
%TO.P,REF\u002A\u002A,C8*%
X117600000Y-112500000D03*
%TO.P,REF\u002A\u002A,C9*%
X116800000Y-112500000D03*
%TO.P,REF\u002A\u002A,D1*%
X123200000Y-113300000D03*
%TO.P,REF\u002A\u002A,D2*%
X122400000Y-113300000D03*
%TO.P,REF\u002A\u002A,D3*%
X121600000Y-113300000D03*
%TO.P,REF\u002A\u002A,D7*%
X118400000Y-113300000D03*
%TO.P,REF\u002A\u002A,D8*%
X117600000Y-113300000D03*
%TO.P,REF\u002A\u002A,D9*%
X116800000Y-113300000D03*
%TO.P,REF\u002A\u002A,E1*%
X123200000Y-114100000D03*
%TO.P,REF\u002A\u002A,E2*%
X122400000Y-114100000D03*
%TO.P,REF\u002A\u002A,E3*%
X121600000Y-114100000D03*
%TO.P,REF\u002A\u002A,E7*%
X118400000Y-114100000D03*
%TO.P,REF\u002A\u002A,E8*%
X117600000Y-114100000D03*
%TO.P,REF\u002A\u002A,E9*%
X116800000Y-114100000D03*
%TO.P,REF\u002A\u002A,F1*%
X123200000Y-114900000D03*
%TO.P,REF\u002A\u002A,F2*%
X122400000Y-114900000D03*
%TO.P,REF\u002A\u002A,F3*%
X121600000Y-114900000D03*
%TO.P,REF\u002A\u002A,F7*%
X118400000Y-114900000D03*
%TO.P,REF\u002A\u002A,F8*%
X117600000Y-114900000D03*
%TO.P,REF\u002A\u002A,F9*%
X116800000Y-114900000D03*
%TO.P,REF\u002A\u002A,G1*%
X123200000Y-115700000D03*
%TO.P,REF\u002A\u002A,G2*%
X122400000Y-115700000D03*
%TO.P,REF\u002A\u002A,G3*%
X121600000Y-115700000D03*
%TO.P,REF\u002A\u002A,G7*%
X118400000Y-115700000D03*
%TO.P,REF\u002A\u002A,G8*%
X117600000Y-115700000D03*
%TO.P,REF\u002A\u002A,G9*%
X116800000Y-115700000D03*
%TO.P,REF\u002A\u002A,H1*%
X123200000Y-116500000D03*
%TO.P,REF\u002A\u002A,H2*%
X122400000Y-116500000D03*
%TO.P,REF\u002A\u002A,H3*%
X121600000Y-116500000D03*
%TO.P,REF\u002A\u002A,H7*%
X118400000Y-116500000D03*
%TO.P,REF\u002A\u002A,H8*%
X117600000Y-116500000D03*
%TO.P,REF\u002A\u002A,H9*%
X116800000Y-116500000D03*
%TO.P,REF\u002A\u002A,J1*%
X123200000Y-117300000D03*
%TO.P,REF\u002A\u002A,J2*%
X122400000Y-117300000D03*
%TO.P,REF\u002A\u002A,J3*%
X121600000Y-117300000D03*
%TO.P,REF\u002A\u002A,J7*%
X118400000Y-117300000D03*
%TO.P,REF\u002A\u002A,J8*%
X117600000Y-117300000D03*
%TO.P,REF\u002A\u002A,J9*%
X116800000Y-117300000D03*
%TO.P,REF\u002A\u002A,K1*%
X123200000Y-118100000D03*
%TO.P,REF\u002A\u002A,K2*%
X122400000Y-118100000D03*
%TO.P,REF\u002A\u002A,K3*%
X121600000Y-118100000D03*
%TO.P,REF\u002A\u002A,K7*%
X118400000Y-118100000D03*
%TO.P,REF\u002A\u002A,K8*%
X117600000Y-118100000D03*
%TO.P,REF\u002A\u002A,K9*%
X116800000Y-118100000D03*
%TO.P,REF\u002A\u002A,L1*%
X123200000Y-118900000D03*
%TO.P,REF\u002A\u002A,L2*%
X122400000Y-118900000D03*
%TO.P,REF\u002A\u002A,L3*%
X121600000Y-118900000D03*
%TO.P,REF\u002A\u002A,L7*%
X118400000Y-118900000D03*
%TO.P,REF\u002A\u002A,L8*%
X117600000Y-118900000D03*
%TO.P,REF\u002A\u002A,L9*%
X116800000Y-118900000D03*
%TO.P,REF\u002A\u002A,M1*%
X123200000Y-119700000D03*
%TO.P,REF\u002A\u002A,M2*%
X122400000Y-119700000D03*
%TO.P,REF\u002A\u002A,M3*%
X121600000Y-119700000D03*
%TO.P,REF\u002A\u002A,M7*%
X118400000Y-119700000D03*
%TO.P,REF\u002A\u002A,M8*%
X117600000Y-119700000D03*
%TO.P,REF\u002A\u002A,M9*%
X116800000Y-119700000D03*
%TO.P,REF\u002A\u002A,N1*%
X123200000Y-120500000D03*
%TO.P,REF\u002A\u002A,N2*%
X122400000Y-120500000D03*
%TO.P,REF\u002A\u002A,N3*%
X121600000Y-120500000D03*
%TO.P,REF\u002A\u002A,N7*%
X118400000Y-120500000D03*
%TO.P,REF\u002A\u002A,N8*%
X117600000Y-120500000D03*
%TO.P,REF\u002A\u002A,N9*%
X116800000Y-120500000D03*
%TO.P,REF\u002A\u002A,P1*%
X123200000Y-121300000D03*
%TO.P,REF\u002A\u002A,P2*%
X122400000Y-121300000D03*
%TO.P,REF\u002A\u002A,P3*%
X121600000Y-121300000D03*
%TO.P,REF\u002A\u002A,P7*%
X118400000Y-121300000D03*
%TO.P,REF\u002A\u002A,P8*%
X117600000Y-121300000D03*
%TO.P,REF\u002A\u002A,P9*%
X116800000Y-121300000D03*
%TO.P,REF\u002A\u002A,R1*%
X123200000Y-122100000D03*
%TO.P,REF\u002A\u002A,R2*%
X122400000Y-122100000D03*
%TO.P,REF\u002A\u002A,R3*%
X121600000Y-122100000D03*
%TO.P,REF\u002A\u002A,R7*%
X118400000Y-122100000D03*
%TO.P,REF\u002A\u002A,R8*%
X117600000Y-122100000D03*
%TO.P,REF\u002A\u002A,R9*%
X116800000Y-122100000D03*
%TO.P,REF\u002A\u002A,T1*%
X123200000Y-122900000D03*
%TO.P,REF\u002A\u002A,T2*%
X122400000Y-122900000D03*
%TO.P,REF\u002A\u002A,T3*%
X121600000Y-122900000D03*
%TO.P,REF\u002A\u002A,T7*%
X118400000Y-122900000D03*
%TO.P,REF\u002A\u002A,T8*%
X117600000Y-122900000D03*
%TO.P,REF\u002A\u002A,T9*%
X116800000Y-122900000D03*
%TD*%
D12*
%TO.P,REF\u002A\u002A,1*%
%TO.N,N/C*%
X117160000Y-105840000D03*
D13*
X116510000Y-105860000D03*
D14*
X115790000Y-105870000D03*
D15*
X115000000Y-105910000D03*
D16*
X114140000Y-105930000D03*
D17*
X113220000Y-105960000D03*
D18*
X112240000Y-105990000D03*
D19*
X111120000Y-106040000D03*
D20*
X109810000Y-106080000D03*
D21*
X108400000Y-106130000D03*
D22*
X106930000Y-106180000D03*
D23*
X105340000Y-106230000D03*
D24*
X103620000Y-106340000D03*
D25*
X101410000Y-106390000D03*
D26*
X99260000Y-106480000D03*
D27*
X96760000Y-106580000D03*
D28*
X94210000Y-106660000D03*
D29*
X91300000Y-106800000D03*
D30*
X88150000Y-107010000D03*
D31*
X84820000Y-107120000D03*
D32*
X81000000Y-107280000D03*
%TD*%
D33*
%TO.P,REF\u002A\u002A,1*%
%TO.N,N/C*%
X140662500Y-105162500D03*
%TO.P,REF\u002A\u002A,2*%
X140662500Y-105962500D03*
%TO.P,REF\u002A\u002A,3*%
X140662500Y-106762500D03*
%TO.P,REF\u002A\u002A,4*%
X140662500Y-107562500D03*
%TO.P,REF\u002A\u002A,5*%
X140662500Y-108362500D03*
%TO.P,REF\u002A\u002A,6*%
X140662500Y-109162500D03*
%TO.P,REF\u002A\u002A,7*%
X140662500Y-109962500D03*
%TO.P,REF\u002A\u002A,8*%
X140662500Y-110762500D03*
%TO.P,REF\u002A\u002A,9*%
X140662500Y-111562500D03*
%TO.P,REF\u002A\u002A,10*%
X140662500Y-112362500D03*
%TO.P,REF\u002A\u002A,11*%
X140662500Y-113162500D03*
D34*
%TO.P,REF\u002A\u002A,12*%
X139000000Y-114825000D03*
%TO.P,REF\u002A\u002A,13*%
X138200000Y-114825000D03*
%TO.P,REF\u002A\u002A,14*%
X137400000Y-114825000D03*
%TO.P,REF\u002A\u002A,15*%
X136600000Y-114825000D03*
%TO.P,REF\u002A\u002A,16*%
X135800000Y-114825000D03*
%TO.P,REF\u002A\u002A,17*%
X135000000Y-114825000D03*
%TO.P,REF\u002A\u002A,18*%
X134200000Y-114825000D03*
%TO.P,REF\u002A\u002A,19*%
X133400000Y-114825000D03*
%TO.P,REF\u002A\u002A,20*%
X132600000Y-114825000D03*
%TO.P,REF\u002A\u002A,21*%
X131800000Y-114825000D03*
%TO.P,REF\u002A\u002A,22*%
X131000000Y-114825000D03*
D33*
%TO.P,REF\u002A\u002A,23*%
X129337500Y-113162500D03*
%TO.P,REF\u002A\u002A,24*%
X129337500Y-112362500D03*
%TO.P,REF\u002A\u002A,25*%
X129337500Y-111562500D03*
%TO.P,REF\u002A\u002A,26*%
X129337500Y-110762500D03*
%TO.P,REF\u002A\u002A,27*%
X129337500Y-109962500D03*
%TO.P,REF\u002A\u002A,28*%
X129337500Y-109162500D03*
%TO.P,REF\u002A\u002A,29*%
X129337500Y-108362500D03*
%TO.P,REF\u002A\u002A,30*%
X129337500Y-107562500D03*
%TO.P,REF\u002A\u002A,31*%
X129337500Y-106762500D03*
%TO.P,REF\u002A\u002A,32*%
X129337500Y-105962500D03*
%TO.P,REF\u002A\u002A,33*%
X129337500Y-105162500D03*
D34*
%TO.P,REF\u002A\u002A,34*%
X131000000Y-103500000D03*
%TO.P,REF\u002A\u002A,35*%
X131800000Y-103500000D03*
%TO.P,REF\u002A\u002A,36*%
X132600000Y-103500000D03*
%TO.P,REF\u002A\u002A,37*%
X133400000Y-103500000D03*
%TO.P,REF\u002A\u002A,38*%
X134200000Y-103500000D03*
%TO.P,REF\u002A\u002A,39*%
X135000000Y-103500000D03*
%TO.P,REF\u002A\u002A,40*%
X135800000Y-103500000D03*
%TO.P,REF\u002A\u002A,41*%
X136600000Y-103500000D03*
%TO.P,REF\u002A\u002A,42*%
X137400000Y-103500000D03*
%TO.P,REF\u002A\u002A,43*%
X138200000Y-103500000D03*
%TO.P,REF\u002A\u002A,44*%
X139000000Y-103500000D03*
%TD*%
D35*
%TO.P,REF\u002A\u002A,A1*%
%TO.N,N/C*%
X172000000Y-108190000D03*
%TO.P,REF\u002A\u002A,A4*%
X172800000Y-108190000D03*
D36*
%TO.P,REF\u002A\u002A,A5*%
X173950000Y-108190000D03*
%TO.P,REF\u002A\u002A,A6*%
X174950000Y-108190000D03*
%TO.P,REF\u002A\u002A,A7*%
X175450000Y-108190000D03*
%TO.P,REF\u002A\u002A,A8*%
X176450000Y-108190000D03*
D35*
%TO.P,REF\u002A\u002A,A9*%
X177600000Y-108190000D03*
%TO.P,REF\u002A\u002A,A12*%
X178400000Y-108190000D03*
%TO.P,REF\u002A\u002A,B1*%
X178400000Y-108190000D03*
%TO.P,REF\u002A\u002A,B4*%
X177600000Y-108190000D03*
D36*
%TO.P,REF\u002A\u002A,B5*%
X176950000Y-108190000D03*
%TO.P,REF\u002A\u002A,B6*%
X175950000Y-108190000D03*
%TO.P,REF\u002A\u002A,B7*%
X174450000Y-108190000D03*
%TO.P,REF\u002A\u002A,B8*%
X173450000Y-108190000D03*
D35*
%TO.P,REF\u002A\u002A,B9*%
X172800000Y-108190000D03*
%TO.P,REF\u002A\u002A,B12*%
X172000000Y-108190000D03*
D37*
%TO.P,REF\u002A\u002A,SH*%
X170880000Y-103435000D03*
D38*
X170880000Y-107615000D03*
D37*
X179520000Y-103435000D03*
D38*
X179520000Y-107615000D03*
%TD*%
D39*
%TO.P,REF\u002A\u002A,25*%
%TO.N,N/C*%
X194700000Y-109760000D03*
D40*
%TO.P,REF\u002A\u002A,26*%
X196270000Y-104150000D03*
%TO.P,REF\u002A\u002A,27*%
X184130000Y-104150000D03*
D39*
%TO.P,REF\u002A\u002A,28*%
X185700000Y-109760000D03*
D41*
%TO.P,REF\u002A\u002A,A1*%
X187450000Y-110190000D03*
%TO.P,REF\u002A\u002A,A2*%
X187950000Y-110190000D03*
%TO.P,REF\u002A\u002A,A3*%
X188450000Y-110190000D03*
%TO.P,REF\u002A\u002A,A4*%
X188950000Y-110190000D03*
%TO.P,REF\u002A\u002A,A5*%
X189450000Y-110190000D03*
%TO.P,REF\u002A\u002A,A6*%
X189950000Y-110190000D03*
%TO.P,REF\u002A\u002A,A7*%
X190450000Y-110190000D03*
%TO.P,REF\u002A\u002A,A8*%
X190950000Y-110190000D03*
%TO.P,REF\u002A\u002A,A9*%
X191450000Y-110190000D03*
%TO.P,REF\u002A\u002A,A10*%
X191950000Y-110190000D03*
%TO.P,REF\u002A\u002A,A11*%
X192450000Y-110190000D03*
%TO.P,REF\u002A\u002A,A12*%
X192950000Y-110190000D03*
D42*
%TO.P,REF\u002A\u002A,B1*%
X192960000Y-109010000D03*
D43*
%TO.P,REF\u002A\u002A,B2*%
X192600000Y-108100000D03*
%TO.P,REF\u002A\u002A,B3*%
X191800000Y-108100000D03*
%TO.P,REF\u002A\u002A,B4*%
X191410000Y-109010000D03*
%TO.P,REF\u002A\u002A,B5*%
X191000000Y-108100000D03*
%TO.P,REF\u002A\u002A,B6*%
X190600000Y-109010000D03*
%TO.P,REF\u002A\u002A,B7*%
X189800000Y-109010000D03*
%TO.P,REF\u002A\u002A,B8*%
X189400000Y-108100000D03*
%TO.P,REF\u002A\u002A,B9*%
X189010000Y-109010000D03*
%TO.P,REF\u002A\u002A,B10*%
X188600000Y-108100000D03*
%TO.P,REF\u002A\u002A,B11*%
X187800000Y-108100000D03*
D42*
%TO.P,REF\u002A\u002A,B12*%
X187430000Y-109010000D03*
%TD*%
D44*
%TO.P,REF\u002A\u002A,1*%
%TO.N,N/C*%
X229800000Y-121765000D03*
%TO.P,REF\u002A\u002A,2*%
X227260000Y-121765000D03*
%TO.P,REF\u002A\u002A,3*%
X224720000Y-121765000D03*
%TO.P,REF\u002A\u002A,4*%
X222180000Y-121765000D03*
%TO.P,REF\u002A\u002A,5*%
X219640000Y-121765000D03*
%TO.P,REF\u002A\u002A,6*%
X217100000Y-121765000D03*
%TO.P,REF\u002A\u002A,7*%
X214560000Y-121765000D03*
%TO.P,REF\u002A\u002A,8*%
X214560000Y-105600000D03*
%TO.P,REF\u002A\u002A,9*%
X217100000Y-105600000D03*
%TO.P,REF\u002A\u002A,10*%
X219640000Y-105600000D03*
%TO.P,REF\u002A\u002A,11*%
X222180000Y-105600000D03*
%TO.P,REF\u002A\u002A,12*%
X224720000Y-105600000D03*
%TO.P,REF\u002A\u002A,13*%
X227260000Y-105600000D03*
%TO.P,REF\u002A\u002A,14*%
X229800000Y-105600000D03*
D45*
%TO.P,REF\u002A\u002A,15*%
X230812000Y-114980000D03*
%TO.P,REF\u002A\u002A,16*%
X230812000Y-112440000D03*
%TO.P,REF\u002A\u002A,17*%
X228272000Y-114980000D03*
%TO.P,REF\u002A\u002A,18*%
X228272000Y-112440000D03*
%TO.P,REF\u002A\u002A,19*%
X225732000Y-114980000D03*
%TO.P,REF\u002A\u002A,20*%
X225732000Y-112440000D03*
%TO.P,REF\u002A\u002A,21*%
X223192000Y-114980000D03*
%TO.P,REF\u002A\u002A,22*%
X223192000Y-112440000D03*
D46*
%TO.P,REF\u002A\u002A,23*%
X222562000Y-118155000D03*
%TO.P,REF\u002A\u002A,24*%
X224467000Y-118155000D03*
D47*
%TO.P,REF\u002A\u002A,25*%
X220180000Y-112590000D03*
%TD*%
D33*
%TO.P,REF\u002A\u002A,1*%
%TO.N,N/C*%
X179600000Y-114400000D03*
%TO.P,REF\u002A\u002A,2*%
X179600000Y-115200000D03*
%TO.P,REF\u002A\u002A,3*%
X179600000Y-116000000D03*
%TO.P,REF\u002A\u002A,4*%
X179600000Y-116800000D03*
%TO.P,REF\u002A\u002A,5*%
X179600000Y-117600000D03*
%TO.P,REF\u002A\u002A,6*%
X179600000Y-118400000D03*
%TO.P,REF\u002A\u002A,7*%
X179600000Y-119200000D03*
%TO.P,REF\u002A\u002A,8*%
X179600000Y-120000000D03*
%TO.P,REF\u002A\u002A,9*%
X179600000Y-120800000D03*
%TO.P,REF\u002A\u002A,10*%
X179600000Y-121600000D03*
%TO.P,REF\u002A\u002A,11*%
X179600000Y-122400000D03*
D34*
%TO.P,REF\u002A\u002A,12*%
X177937500Y-124062500D03*
%TO.P,REF\u002A\u002A,13*%
X177137500Y-124062500D03*
%TO.P,REF\u002A\u002A,14*%
X176337500Y-124062500D03*
%TO.P,REF\u002A\u002A,15*%
X175537500Y-124062500D03*
%TO.P,REF\u002A\u002A,16*%
X174737500Y-124062500D03*
%TO.P,REF\u002A\u002A,17*%
X173937500Y-124062500D03*
%TO.P,REF\u002A\u002A,18*%
X173137500Y-124062500D03*
%TO.P,REF\u002A\u002A,19*%
X172337500Y-124062500D03*
%TO.P,REF\u002A\u002A,20*%
X171537500Y-124062500D03*
%TO.P,REF\u002A\u002A,21*%
X170737500Y-124062500D03*
%TO.P,REF\u002A\u002A,22*%
X169937500Y-124062500D03*
D33*
%TO.P,REF\u002A\u002A,23*%
X168275000Y-122400000D03*
%TO.P,REF\u002A\u002A,24*%
X168275000Y-121600000D03*
%TO.P,REF\u002A\u002A,25*%
X168275000Y-120800000D03*
%TO.P,REF\u002A\u002A,26*%
X168275000Y-120000000D03*
%TO.P,REF\u002A\u002A,27*%
X168275000Y-119200000D03*
%TO.P,REF\u002A\u002A,28*%
X168275000Y-118400000D03*
%TO.P,REF\u002A\u002A,29*%
X168275000Y-117600000D03*
%TO.P,REF\u002A\u002A,30*%
X168275000Y-116800000D03*
%TO.P,REF\u002A\u002A,31*%
X168275000Y-116000000D03*
%TO.P,REF\u002A\u002A,32*%
X168275000Y-115200000D03*
%TO.P,REF\u002A\u002A,33*%
X168275000Y-114400000D03*
D34*
%TO.P,REF\u002A\u002A,34*%
X169937500Y-112737500D03*
%TO.P,REF\u002A\u002A,35*%
X170737500Y-112737500D03*
%TO.P,REF\u002A\u002A,36*%
X171537500Y-112737500D03*
%TO.P,REF\u002A\u002A,37*%
X172337500Y-112737500D03*
%TO.P,REF\u002A\u002A,38*%
X173137500Y-112737500D03*
%TO.P,REF\u002A\u002A,39*%
X173937500Y-112737500D03*
%TO.P,REF\u002A\u002A,40*%
X174737500Y-112737500D03*
%TO.P,REF\u002A\u002A,41*%
X175537500Y-112737500D03*
%TO.P,REF\u002A\u002A,42*%
X176337500Y-112737500D03*
%TO.P,REF\u002A\u002A,43*%
X177137500Y-112737500D03*
%TO.P,REF\u002A\u002A,44*%
X177937500Y-112737500D03*
D48*
%TO.P,REF\u002A\u002A,45*%
X173937500Y-118400000D03*
%TD*%
%TO.N,*%
D49*
X138055844Y-124460000D02*
X138055844Y-123700000D01*
X135415844Y-122700000D02*
X135295844Y-122700000D01*
X136255844Y-122940000D02*
X136255844Y-123700000D01*
X132055844Y-124460000D02*
X132055844Y-123700000D01*
X131400000Y-117300000D02*
X140200000Y-117300000D01*
X136855844Y-124460000D02*
X136855844Y-123700000D01*
X134455844Y-123700000D02*
X134455844Y-122940000D01*
X140100000Y-123700000D02*
X140095844Y-123700000D01*
X137455844Y-123700000D02*
X137455844Y-124460000D01*
X134815844Y-124700000D02*
X134695844Y-124700000D01*
X133200000Y-118900000D02*
X140500000Y-118900000D01*
X137215844Y-124700000D02*
X137095844Y-124700000D01*
X132655844Y-123700000D02*
X132655844Y-124460000D01*
X135655844Y-123700000D02*
X135655844Y-122940000D01*
X138655844Y-123700000D02*
X138655844Y-124460000D01*
X138415844Y-124700000D02*
X138295844Y-124700000D01*
X131455844Y-122940000D02*
X131455844Y-123460000D01*
X139015844Y-122700000D02*
X138895844Y-122700000D01*
X132055844Y-123460000D02*
X132055844Y-122940000D01*
X133255844Y-123700000D02*
X133255844Y-122940000D01*
X131815844Y-122700000D02*
X131695844Y-122700000D01*
X136615844Y-122700000D02*
X136495844Y-122700000D01*
X132655844Y-122940000D02*
X132655844Y-123700000D01*
X133855844Y-123700000D02*
X133855844Y-124460000D01*
X131050000Y-116800000D02*
X139700000Y-116800000D01*
X139615844Y-124700000D02*
X139495844Y-124700000D01*
X131600000Y-118000000D02*
X140400000Y-118000000D01*
X133615844Y-124700000D02*
X133495844Y-124700000D01*
X128200000Y-125400000D02*
X128200000Y-121400000D01*
X133300000Y-119900000D02*
X140700000Y-119900000D01*
X133855844Y-122940000D02*
X133855844Y-123700000D01*
X132600000Y-120800000D02*
X140700000Y-120800000D01*
X139255844Y-123940000D02*
X139255844Y-123700000D01*
X131095844Y-123700000D02*
X130700000Y-123700000D01*
X128200000Y-121400000D02*
X131600000Y-118000000D01*
X132415844Y-124700000D02*
X132295844Y-124700000D01*
X135655844Y-124460000D02*
X135655844Y-123700000D01*
X127200000Y-124500000D02*
X127200000Y-120650000D01*
X136015844Y-124700000D02*
X135895844Y-124700000D01*
X139855844Y-123940000D02*
X139855844Y-124460000D01*
X138055844Y-123700000D02*
X138055844Y-122940000D01*
X136255844Y-123700000D02*
X136255844Y-124460000D01*
X133015844Y-122700000D02*
X132895844Y-122700000D01*
X137815844Y-122700000D02*
X137695844Y-122700000D01*
X138655844Y-122940000D02*
X138655844Y-123700000D01*
X135055844Y-123700000D02*
X135055844Y-124460000D01*
X136855844Y-123700000D02*
X136855844Y-122940000D01*
X135055844Y-122940000D02*
X135055844Y-123700000D01*
X139255844Y-124460000D02*
X139255844Y-123940000D01*
X127200000Y-120650000D02*
X131050000Y-116800000D01*
X139255844Y-123700000D02*
X139255844Y-122940000D01*
X137455844Y-122940000D02*
X137455844Y-123700000D01*
X133255844Y-124460000D02*
X133255844Y-123700000D01*
X130200000Y-121900000D02*
X133200000Y-118900000D01*
X127700000Y-121000000D02*
X131400000Y-117300000D01*
X134455844Y-124460000D02*
X134455844Y-123700000D01*
X134215844Y-122700000D02*
X134095844Y-122700000D01*
X132055844Y-123700000D02*
X132055844Y-123460000D01*
X131215844Y-123700000D02*
X131095844Y-123700000D01*
X127700000Y-125000000D02*
X127700000Y-121000000D01*
X131600000Y-121800000D02*
X132600000Y-120800000D01*
X139855844Y-124460000D02*
G75*
G02*
X139615844Y-124700044I-240044J0D01*
G01*
X132655844Y-124460000D02*
G75*
G02*
X132415844Y-124700044I-240044J0D01*
G01*
X137695844Y-122700000D02*
G75*
G03*
X137455800Y-122940000I-44J-240000D01*
G01*
X139495844Y-124700000D02*
G75*
G02*
X139255800Y-124460000I-44J240000D01*
G01*
X138655844Y-124460000D02*
G75*
G02*
X138415844Y-124700044I-240044J0D01*
G01*
X131455844Y-123460000D02*
G75*
G02*
X131215844Y-123700044I-240044J0D01*
G01*
X133495844Y-124700000D02*
G75*
G02*
X133255800Y-124460000I-44J240000D01*
G01*
X133855844Y-124460000D02*
G75*
G02*
X133615844Y-124700044I-240044J0D01*
G01*
X138055844Y-122940000D02*
G75*
G03*
X137815844Y-122699956I-240044J0D01*
G01*
X139255844Y-122940000D02*
G75*
G03*
X139015844Y-122699956I-240044J0D01*
G01*
X138895844Y-122700000D02*
G75*
G03*
X138655800Y-122940000I-44J-240000D01*
G01*
X135895844Y-124700000D02*
G75*
G02*
X135655800Y-124460000I-44J240000D01*
G01*
X136855844Y-122940000D02*
G75*
G03*
X136615844Y-122699956I-240044J0D01*
G01*
X132295844Y-124700000D02*
G75*
G02*
X132055800Y-124460000I-44J240000D01*
G01*
X131695844Y-122700000D02*
G75*
G03*
X131455800Y-122940000I-44J-240000D01*
G01*
X133255844Y-122940000D02*
G75*
G03*
X133015844Y-122699956I-240044J0D01*
G01*
X137455844Y-124460000D02*
G75*
G02*
X137215844Y-124700044I-240044J0D01*
G01*
X134455844Y-122940000D02*
G75*
G03*
X134215844Y-122699956I-240044J0D01*
G01*
X137095844Y-124700000D02*
G75*
G02*
X136855800Y-124460000I-44J240000D01*
G01*
X135655844Y-122940000D02*
G75*
G03*
X135415844Y-122699956I-240044J0D01*
G01*
X134095844Y-122700000D02*
G75*
G03*
X133855800Y-122940000I-44J-240000D01*
G01*
X136495844Y-122700000D02*
G75*
G03*
X136255800Y-122940000I-44J-240000D01*
G01*
X136255844Y-124460000D02*
G75*
G02*
X136015844Y-124700044I-240044J0D01*
G01*
X132895844Y-122700000D02*
G75*
G03*
X132655800Y-122940000I-44J-240000D01*
G01*
X135055844Y-124460000D02*
G75*
G02*
X134815844Y-124700044I-240044J0D01*
G01*
X132055844Y-122940000D02*
G75*
G03*
X131815844Y-122699956I-240044J0D01*
G01*
X135295844Y-122700000D02*
G75*
G03*
X135055800Y-122940000I-44J-240000D01*
G01*
X138295844Y-124700000D02*
G75*
G02*
X138055800Y-124460000I-44J240000D01*
G01*
X140095844Y-123700000D02*
G75*
G03*
X139855800Y-123940000I-44J-240000D01*
G01*
X134695844Y-124700000D02*
G75*
G02*
X134455800Y-124460000I-44J240000D01*
G01*
%TD*%
M02*
