%TF.GenerationSoftware,KiCad,Pcbnew,10.0.5*%
%TF.CreationDate,2026-08-02T13:39:09+02:00*%
%TF.ProjectId,swag PCB ruler,73776167-2050-4434-9220-72756c65722e,rev?*%
%TF.SameCoordinates,Original*%
%TF.FileFunction,Soldermask,Bot*%
%TF.FilePolarity,Negative*%
%FSLAX46Y46*%
G04 Gerber Fmt 4.6, Leading zero omitted, Abs format (unit mm)*
G04 Created by KiCad (PCBNEW 10.0.5) date 2026-08-02 13:39:09*
%MOMM*%
%LPD*%
G01*
G04 APERTURE LIST*
G04 Aperture macros list*
%AMRoundRect*
0 Rectangle with rounded corners*
0 $1 Rounding radius*
0 $2 $3 $4 $5 $6 $7 $8 $9 X,Y pos of 4 corners*
0 Add a 4 corners polygon primitive as box body*
4,1,4,$2,$3,$4,$5,$6,$7,$8,$9,$2,$3,0*
0 Add four circle primitives for the rounded corners*
1,1,$1+$1,$2,$3*
1,1,$1+$1,$4,$5*
1,1,$1+$1,$6,$7*
1,1,$1+$1,$8,$9*
0 Add four rect primitives between the rounded corners*
20,1,$1+$1,$2,$3,$4,$5,0*
20,1,$1+$1,$4,$5,$6,$7,0*
20,1,$1+$1,$6,$7,$8,$9,0*
20,1,$1+$1,$8,$9,$2,$3,0*%
G04 Aperture macros list end*
%ADD10C,0.100000*%
%ADD11C,0.600000*%
%ADD12C,0.360000*%
%ADD13C,0.500000*%
%ADD14C,0.550000*%
%ADD15C,0.650000*%
%ADD16C,0.700000*%
%ADD17C,0.750000*%
%ADD18C,0.850000*%
%ADD19C,0.900000*%
%ADD20C,1.000000*%
%ADD21C,1.100000*%
%ADD22C,1.200000*%
%ADD23C,1.350000*%
%ADD24C,1.500000*%
%ADD25C,1.650000*%
%ADD26C,1.850000*%
%ADD27C,2.000000*%
%ADD28C,2.200000*%
%ADD29C,2.500000*%
%ADD30C,2.800000*%
%ADD31C,3.100000*%
%ADD32C,3.450000*%
%ADD33RoundRect,0.137500X0.600000X0.137500X-0.600000X0.137500X-0.600000X-0.137500X0.600000X-0.137500X0*%
%ADD34RoundRect,0.137500X0.137500X0.600000X-0.137500X0.600000X-0.137500X-0.600000X0.137500X-0.600000X0*%
%ADD35RoundRect,0.150000X-0.150000X-0.425000X0.150000X-0.425000X0.150000X0.425000X-0.150000X0.425000X0*%
%ADD36RoundRect,0.075000X-0.075000X-0.500000X0.075000X-0.500000X0.075000X0.500000X-0.075000X0.500000X0*%
%ADD37O,1.000000X1.800000*%
%ADD38O,1.000000X2.100000*%
%ADD39O,0.800000X1.500000*%
%ADD40O,0.800000X2.000000*%
%ADD41R,0.300000X0.750000*%
%ADD42O,1.300000X0.500000*%
%ADD43RoundRect,0.550800X0.500000X-0.875000X0.500000X0.875000X-0.500000X0.875000X-0.500000X-0.875000X0*%
%ADD44C,1.700000*%
%ADD45RoundRect,0.275000X-0.275000X0.975000X-0.275000X-0.975000X0.275000X-0.975000X0.275000X0.975000X0*%
%ADD46RoundRect,0.625000X0.625000X-0.750000X0.625000X0.750000X-0.625000X0.750000X-0.625000X-0.750000X0*%
%ADD47R,4.500000X4.500000*%
G04 APERTURE END LIST*
D10*
X181650000Y-116700000D02*
X206750000Y-116700000D01*
X206750000Y-124900000D01*
X181650000Y-124900000D01*
X181650000Y-116700000D01*
G36*
X181650000Y-116700000D02*
G01*
X206750000Y-116700000D01*
X206750000Y-124900000D01*
X181650000Y-124900000D01*
X181650000Y-116700000D01*
G37*
D11*
%TO.C,REF\u002A\u002A*%
X163300000Y-103900000D03*
X162500000Y-103900000D03*
X161700000Y-103900000D03*
X160900000Y-103900000D03*
X160100000Y-103900000D03*
X159300000Y-103900000D03*
X158500000Y-103900000D03*
X157700000Y-103900000D03*
X156900000Y-103900000D03*
X156100000Y-103900000D03*
X155300000Y-103900000D03*
X154500000Y-103900000D03*
X153700000Y-103900000D03*
X152900000Y-103900000D03*
X152100000Y-103900000D03*
X151300000Y-103900000D03*
X150500000Y-103900000D03*
X149700000Y-103900000D03*
X148900000Y-103900000D03*
X148100000Y-103900000D03*
X147300000Y-103900000D03*
X146500000Y-103900000D03*
X145700000Y-103900000D03*
X163300000Y-119900000D03*
X162500000Y-119900000D03*
X161700000Y-119900000D03*
X160900000Y-119900000D03*
X160100000Y-119900000D03*
X159300000Y-119900000D03*
X158500000Y-119900000D03*
X157700000Y-119900000D03*
X156900000Y-119900000D03*
X156100000Y-119900000D03*
X155300000Y-119900000D03*
X154500000Y-119900000D03*
X153700000Y-119900000D03*
X152900000Y-119900000D03*
X152100000Y-119900000D03*
X151300000Y-119900000D03*
X150500000Y-119900000D03*
X149700000Y-119900000D03*
X148900000Y-119900000D03*
X148100000Y-119900000D03*
X147300000Y-119900000D03*
X146500000Y-119900000D03*
X145700000Y-119900000D03*
X163300000Y-120700000D03*
X162500000Y-120700000D03*
X161700000Y-120700000D03*
X160900000Y-120700000D03*
X160100000Y-120700000D03*
X159300000Y-120700000D03*
X158500000Y-120700000D03*
X157700000Y-120700000D03*
X156900000Y-120700000D03*
X156100000Y-120700000D03*
X155300000Y-120700000D03*
X154500000Y-120700000D03*
X153700000Y-120700000D03*
X152900000Y-120700000D03*
X152100000Y-120700000D03*
X151300000Y-120700000D03*
X150500000Y-120700000D03*
X149700000Y-120700000D03*
X148900000Y-120700000D03*
X148100000Y-120700000D03*
X147300000Y-120700000D03*
X146500000Y-120700000D03*
X145700000Y-120700000D03*
X163300000Y-121500000D03*
X162500000Y-121500000D03*
X161700000Y-121500000D03*
X160900000Y-121500000D03*
X160100000Y-121500000D03*
X159300000Y-121500000D03*
X158500000Y-121500000D03*
X157700000Y-121500000D03*
X156900000Y-121500000D03*
X156100000Y-121500000D03*
X155300000Y-121500000D03*
X154500000Y-121500000D03*
X153700000Y-121500000D03*
X152900000Y-121500000D03*
X152100000Y-121500000D03*
X151300000Y-121500000D03*
X150500000Y-121500000D03*
X149700000Y-121500000D03*
X148900000Y-121500000D03*
X148100000Y-121500000D03*
X147300000Y-121500000D03*
X146500000Y-121500000D03*
X145700000Y-121500000D03*
X163300000Y-104700000D03*
X162500000Y-104700000D03*
X161700000Y-104700000D03*
X160900000Y-104700000D03*
X160100000Y-104700000D03*
X159300000Y-104700000D03*
X158500000Y-104700000D03*
X157700000Y-104700000D03*
X156900000Y-104700000D03*
X156100000Y-104700000D03*
X155300000Y-104700000D03*
X154500000Y-104700000D03*
X153700000Y-104700000D03*
X152900000Y-104700000D03*
X152100000Y-104700000D03*
X151300000Y-104700000D03*
X150500000Y-104700000D03*
X149700000Y-104700000D03*
X148900000Y-104700000D03*
X148100000Y-104700000D03*
X147300000Y-104700000D03*
X146500000Y-104700000D03*
X145700000Y-104700000D03*
X163300000Y-105500000D03*
X162500000Y-105500000D03*
X161700000Y-105500000D03*
X160900000Y-105500000D03*
X160100000Y-105500000D03*
X159300000Y-105500000D03*
X158500000Y-105500000D03*
X157700000Y-105500000D03*
X156900000Y-105500000D03*
X156100000Y-105500000D03*
X155300000Y-105500000D03*
X154500000Y-105500000D03*
X153700000Y-105500000D03*
X152900000Y-105500000D03*
X152100000Y-105500000D03*
X151300000Y-105500000D03*
X150500000Y-105500000D03*
X149700000Y-105500000D03*
X148900000Y-105500000D03*
X148100000Y-105500000D03*
X147300000Y-105500000D03*
X146500000Y-105500000D03*
X145700000Y-105500000D03*
X163300000Y-106300000D03*
X162500000Y-106300000D03*
X161700000Y-106300000D03*
X160900000Y-106300000D03*
X160100000Y-106300000D03*
X159300000Y-106300000D03*
X158500000Y-106300000D03*
X157700000Y-106300000D03*
X156900000Y-106300000D03*
X156100000Y-106300000D03*
X155300000Y-106300000D03*
X154500000Y-106300000D03*
X153700000Y-106300000D03*
X152900000Y-106300000D03*
X152100000Y-106300000D03*
X151300000Y-106300000D03*
X150500000Y-106300000D03*
X149700000Y-106300000D03*
X148900000Y-106300000D03*
X148100000Y-106300000D03*
X147300000Y-106300000D03*
X146500000Y-106300000D03*
X145700000Y-106300000D03*
X163300000Y-107100000D03*
X162500000Y-107100000D03*
X161700000Y-107100000D03*
X160900000Y-107100000D03*
X160100000Y-107100000D03*
X159300000Y-107100000D03*
X158500000Y-107100000D03*
X157700000Y-107100000D03*
X156900000Y-107100000D03*
X156100000Y-107100000D03*
X155300000Y-107100000D03*
X154500000Y-107100000D03*
X153700000Y-107100000D03*
X152900000Y-107100000D03*
X152100000Y-107100000D03*
X151300000Y-107100000D03*
X150500000Y-107100000D03*
X149700000Y-107100000D03*
X148900000Y-107100000D03*
X148100000Y-107100000D03*
X147300000Y-107100000D03*
X146500000Y-107100000D03*
X145700000Y-107100000D03*
X163300000Y-107900000D03*
X162500000Y-107900000D03*
X161700000Y-107900000D03*
X160900000Y-107900000D03*
X160100000Y-107900000D03*
X159300000Y-107900000D03*
X158500000Y-107900000D03*
X157700000Y-107900000D03*
X156900000Y-107900000D03*
X156100000Y-107900000D03*
X155300000Y-107900000D03*
X154500000Y-107900000D03*
X153700000Y-107900000D03*
X152900000Y-107900000D03*
X152100000Y-107900000D03*
X151300000Y-107900000D03*
X150500000Y-107900000D03*
X149700000Y-107900000D03*
X148900000Y-107900000D03*
X148100000Y-107900000D03*
X147300000Y-107900000D03*
X146500000Y-107900000D03*
X145700000Y-107900000D03*
X163300000Y-108700000D03*
X162500000Y-108700000D03*
X161700000Y-108700000D03*
X160900000Y-108700000D03*
X160100000Y-108700000D03*
X159300000Y-108700000D03*
X158500000Y-108700000D03*
X157700000Y-108700000D03*
X156900000Y-108700000D03*
X156100000Y-108700000D03*
X155300000Y-108700000D03*
X154500000Y-108700000D03*
X153700000Y-108700000D03*
X152900000Y-108700000D03*
X152100000Y-108700000D03*
X151300000Y-108700000D03*
X150500000Y-108700000D03*
X149700000Y-108700000D03*
X148900000Y-108700000D03*
X148100000Y-108700000D03*
X147300000Y-108700000D03*
X146500000Y-108700000D03*
X145700000Y-108700000D03*
X163300000Y-109500000D03*
X162500000Y-109500000D03*
X161700000Y-109500000D03*
X160900000Y-109500000D03*
X160100000Y-109500000D03*
X159300000Y-109500000D03*
X158500000Y-109500000D03*
X157700000Y-109500000D03*
X156900000Y-109500000D03*
X156100000Y-109500000D03*
X155300000Y-109500000D03*
X154500000Y-109500000D03*
X153700000Y-109500000D03*
X152900000Y-109500000D03*
X152100000Y-109500000D03*
X151300000Y-109500000D03*
X150500000Y-109500000D03*
X149700000Y-109500000D03*
X148900000Y-109500000D03*
X148100000Y-109500000D03*
X147300000Y-109500000D03*
X146500000Y-109500000D03*
X145700000Y-109500000D03*
X163300000Y-110300000D03*
X162500000Y-110300000D03*
X161700000Y-110300000D03*
X160900000Y-110300000D03*
X160100000Y-110300000D03*
X159300000Y-110300000D03*
X158500000Y-110300000D03*
X157700000Y-110300000D03*
X156900000Y-110300000D03*
X156100000Y-110300000D03*
X155300000Y-110300000D03*
X154500000Y-110300000D03*
X153700000Y-110300000D03*
X152900000Y-110300000D03*
X152100000Y-110300000D03*
X151300000Y-110300000D03*
X150500000Y-110300000D03*
X149700000Y-110300000D03*
X148900000Y-110300000D03*
X148100000Y-110300000D03*
X147300000Y-110300000D03*
X146500000Y-110300000D03*
X145700000Y-110300000D03*
X163300000Y-111100000D03*
X162500000Y-111100000D03*
X161700000Y-111100000D03*
X160900000Y-111100000D03*
X160100000Y-111100000D03*
X159300000Y-111100000D03*
X158500000Y-111100000D03*
X157700000Y-111100000D03*
X156900000Y-111100000D03*
X156100000Y-111100000D03*
X155300000Y-111100000D03*
X154500000Y-111100000D03*
X153700000Y-111100000D03*
X152900000Y-111100000D03*
X152100000Y-111100000D03*
X151300000Y-111100000D03*
X150500000Y-111100000D03*
X149700000Y-111100000D03*
X148900000Y-111100000D03*
X148100000Y-111100000D03*
X147300000Y-111100000D03*
X146500000Y-111100000D03*
X145700000Y-111100000D03*
X163300000Y-111900000D03*
X162500000Y-111900000D03*
X161700000Y-111900000D03*
X160900000Y-111900000D03*
X160100000Y-111900000D03*
X159300000Y-111900000D03*
X158500000Y-111900000D03*
X157700000Y-111900000D03*
X156900000Y-111900000D03*
X156100000Y-111900000D03*
X155300000Y-111900000D03*
X154500000Y-111900000D03*
X153700000Y-111900000D03*
X152900000Y-111900000D03*
X152100000Y-111900000D03*
X151300000Y-111900000D03*
X150500000Y-111900000D03*
X149700000Y-111900000D03*
X148900000Y-111900000D03*
X148100000Y-111900000D03*
X147300000Y-111900000D03*
X146500000Y-111900000D03*
X145700000Y-111900000D03*
X163300000Y-112700000D03*
X162500000Y-112700000D03*
X161700000Y-112700000D03*
X160900000Y-112700000D03*
X160100000Y-112700000D03*
X159300000Y-112700000D03*
X158500000Y-112700000D03*
X157700000Y-112700000D03*
X156900000Y-112700000D03*
X156100000Y-112700000D03*
X155300000Y-112700000D03*
X154500000Y-112700000D03*
X153700000Y-112700000D03*
X152900000Y-112700000D03*
X152100000Y-112700000D03*
X151300000Y-112700000D03*
X150500000Y-112700000D03*
X149700000Y-112700000D03*
X148900000Y-112700000D03*
X148100000Y-112700000D03*
X147300000Y-112700000D03*
X146500000Y-112700000D03*
X145700000Y-112700000D03*
X163300000Y-113500000D03*
X162500000Y-113500000D03*
X161700000Y-113500000D03*
X160900000Y-113500000D03*
X160100000Y-113500000D03*
X159300000Y-113500000D03*
X158500000Y-113500000D03*
X157700000Y-113500000D03*
X156900000Y-113500000D03*
X156100000Y-113500000D03*
X155300000Y-113500000D03*
X154500000Y-113500000D03*
X153700000Y-113500000D03*
X152900000Y-113500000D03*
X152100000Y-113500000D03*
X151300000Y-113500000D03*
X150500000Y-113500000D03*
X149700000Y-113500000D03*
X148900000Y-113500000D03*
X148100000Y-113500000D03*
X147300000Y-113500000D03*
X146500000Y-113500000D03*
X145700000Y-113500000D03*
X163300000Y-114300000D03*
X162500000Y-114300000D03*
X161700000Y-114300000D03*
X160900000Y-114300000D03*
X160100000Y-114300000D03*
X159300000Y-114300000D03*
X158500000Y-114300000D03*
X157700000Y-114300000D03*
X156900000Y-114300000D03*
X156100000Y-114300000D03*
X155300000Y-114300000D03*
X154500000Y-114300000D03*
X153700000Y-114300000D03*
X152900000Y-114300000D03*
X152100000Y-114300000D03*
X151300000Y-114300000D03*
X150500000Y-114300000D03*
X149700000Y-114300000D03*
X148900000Y-114300000D03*
X148100000Y-114300000D03*
X147300000Y-114300000D03*
X146500000Y-114300000D03*
X145700000Y-114300000D03*
X163300000Y-115100000D03*
X162500000Y-115100000D03*
X161700000Y-115100000D03*
X160900000Y-115100000D03*
X160100000Y-115100000D03*
X159300000Y-115100000D03*
X158500000Y-115100000D03*
X157700000Y-115100000D03*
X156900000Y-115100000D03*
X156100000Y-115100000D03*
X155300000Y-115100000D03*
X154500000Y-115100000D03*
X153700000Y-115100000D03*
X152900000Y-115100000D03*
X152100000Y-115100000D03*
X151300000Y-115100000D03*
X150500000Y-115100000D03*
X149700000Y-115100000D03*
X148900000Y-115100000D03*
X148100000Y-115100000D03*
X147300000Y-115100000D03*
X146500000Y-115100000D03*
X145700000Y-115100000D03*
X163300000Y-115900000D03*
X162500000Y-115900000D03*
X161700000Y-115900000D03*
X160900000Y-115900000D03*
X160100000Y-115900000D03*
X159300000Y-115900000D03*
X158500000Y-115900000D03*
X157700000Y-115900000D03*
X156900000Y-115900000D03*
X156100000Y-115900000D03*
X155300000Y-115900000D03*
X154500000Y-115900000D03*
X153700000Y-115900000D03*
X152900000Y-115900000D03*
X152100000Y-115900000D03*
X151300000Y-115900000D03*
X150500000Y-115900000D03*
X149700000Y-115900000D03*
X148900000Y-115900000D03*
X148100000Y-115900000D03*
X147300000Y-115900000D03*
X146500000Y-115900000D03*
X145700000Y-115900000D03*
X163300000Y-116700000D03*
X162500000Y-116700000D03*
X161700000Y-116700000D03*
X160900000Y-116700000D03*
X160100000Y-116700000D03*
X159300000Y-116700000D03*
X158500000Y-116700000D03*
X157700000Y-116700000D03*
X156900000Y-116700000D03*
X156100000Y-116700000D03*
X155300000Y-116700000D03*
X154500000Y-116700000D03*
X153700000Y-116700000D03*
X152900000Y-116700000D03*
X152100000Y-116700000D03*
X151300000Y-116700000D03*
X150500000Y-116700000D03*
X149700000Y-116700000D03*
X148900000Y-116700000D03*
X148100000Y-116700000D03*
X147300000Y-116700000D03*
X146500000Y-116700000D03*
X145700000Y-116700000D03*
X163300000Y-117500000D03*
X162500000Y-117500000D03*
X161700000Y-117500000D03*
X160900000Y-117500000D03*
X160100000Y-117500000D03*
X159300000Y-117500000D03*
X158500000Y-117500000D03*
X157700000Y-117500000D03*
X156900000Y-117500000D03*
X156100000Y-117500000D03*
X155300000Y-117500000D03*
X154500000Y-117500000D03*
X153700000Y-117500000D03*
X152900000Y-117500000D03*
X152100000Y-117500000D03*
X151300000Y-117500000D03*
X150500000Y-117500000D03*
X149700000Y-117500000D03*
X148900000Y-117500000D03*
X148100000Y-117500000D03*
X147300000Y-117500000D03*
X146500000Y-117500000D03*
X145700000Y-117500000D03*
X163300000Y-118300000D03*
X162500000Y-118300000D03*
X161700000Y-118300000D03*
X160900000Y-118300000D03*
X160100000Y-118300000D03*
X159300000Y-118300000D03*
X158500000Y-118300000D03*
X157700000Y-118300000D03*
X156900000Y-118300000D03*
X156100000Y-118300000D03*
X155300000Y-118300000D03*
X154500000Y-118300000D03*
X153700000Y-118300000D03*
X152900000Y-118300000D03*
X152100000Y-118300000D03*
X151300000Y-118300000D03*
X150500000Y-118300000D03*
X149700000Y-118300000D03*
X148900000Y-118300000D03*
X148100000Y-118300000D03*
X147300000Y-118300000D03*
X146500000Y-118300000D03*
X145700000Y-118300000D03*
X163300000Y-119100000D03*
X162500000Y-119100000D03*
X161700000Y-119100000D03*
X160900000Y-119100000D03*
X160100000Y-119100000D03*
X159300000Y-119100000D03*
X158500000Y-119100000D03*
X157700000Y-119100000D03*
X156900000Y-119100000D03*
X156100000Y-119100000D03*
X155300000Y-119100000D03*
X154500000Y-119100000D03*
X153700000Y-119100000D03*
X152900000Y-119100000D03*
X152100000Y-119100000D03*
X151300000Y-119100000D03*
X150500000Y-119100000D03*
X149700000Y-119100000D03*
X148900000Y-119100000D03*
X148100000Y-119100000D03*
X147300000Y-119100000D03*
X146500000Y-119100000D03*
X145700000Y-119100000D03*
%TD*%
D12*
%TO.C,REF\u002A\u002A*%
X123200000Y-110900000D03*
X122400000Y-110900000D03*
X121600000Y-110900000D03*
X118400000Y-110900000D03*
X117600000Y-110900000D03*
X116800000Y-110900000D03*
X123200000Y-111700000D03*
X122400000Y-111700000D03*
X121600000Y-111700000D03*
X118400000Y-111700000D03*
X117600000Y-111700000D03*
X116800000Y-111700000D03*
X123200000Y-112500000D03*
X122400000Y-112500000D03*
X121600000Y-112500000D03*
X118400000Y-112500000D03*
X117600000Y-112500000D03*
X116800000Y-112500000D03*
X123200000Y-113300000D03*
X122400000Y-113300000D03*
X121600000Y-113300000D03*
X118400000Y-113300000D03*
X117600000Y-113300000D03*
X116800000Y-113300000D03*
X123200000Y-114100000D03*
X122400000Y-114100000D03*
X121600000Y-114100000D03*
X118400000Y-114100000D03*
X117600000Y-114100000D03*
X116800000Y-114100000D03*
X123200000Y-114900000D03*
X122400000Y-114900000D03*
X121600000Y-114900000D03*
X118400000Y-114900000D03*
X117600000Y-114900000D03*
X116800000Y-114900000D03*
X123200000Y-115700000D03*
X122400000Y-115700000D03*
X121600000Y-115700000D03*
X118400000Y-115700000D03*
X117600000Y-115700000D03*
X116800000Y-115700000D03*
X123200000Y-116500000D03*
X122400000Y-116500000D03*
X121600000Y-116500000D03*
X118400000Y-116500000D03*
X117600000Y-116500000D03*
X116800000Y-116500000D03*
X123200000Y-117300000D03*
X122400000Y-117300000D03*
X121600000Y-117300000D03*
X118400000Y-117300000D03*
X117600000Y-117300000D03*
X116800000Y-117300000D03*
X123200000Y-118100000D03*
X122400000Y-118100000D03*
X121600000Y-118100000D03*
X118400000Y-118100000D03*
X117600000Y-118100000D03*
X116800000Y-118100000D03*
X123200000Y-118900000D03*
X122400000Y-118900000D03*
X121600000Y-118900000D03*
X118400000Y-118900000D03*
X117600000Y-118900000D03*
X116800000Y-118900000D03*
X123200000Y-119700000D03*
X122400000Y-119700000D03*
X121600000Y-119700000D03*
X118400000Y-119700000D03*
X117600000Y-119700000D03*
X116800000Y-119700000D03*
X123200000Y-120500000D03*
X122400000Y-120500000D03*
X121600000Y-120500000D03*
X118400000Y-120500000D03*
X117600000Y-120500000D03*
X116800000Y-120500000D03*
X123200000Y-121300000D03*
X122400000Y-121300000D03*
X121600000Y-121300000D03*
X118400000Y-121300000D03*
X117600000Y-121300000D03*
X116800000Y-121300000D03*
X123200000Y-122100000D03*
X122400000Y-122100000D03*
X121600000Y-122100000D03*
X118400000Y-122100000D03*
X117600000Y-122100000D03*
X116800000Y-122100000D03*
X123200000Y-122900000D03*
X122400000Y-122900000D03*
X121600000Y-122900000D03*
X118400000Y-122900000D03*
X117600000Y-122900000D03*
X116800000Y-122900000D03*
%TD*%
D13*
%TO.C,REF\u002A\u002A*%
X117160000Y-105840000D03*
D14*
X116510000Y-105860000D03*
D11*
X115790000Y-105870000D03*
D15*
X115000000Y-105910000D03*
D16*
X114140000Y-105930000D03*
D17*
X113220000Y-105960000D03*
D18*
X112240000Y-105990000D03*
D19*
X111120000Y-106040000D03*
D20*
X109810000Y-106080000D03*
D21*
X108400000Y-106130000D03*
D22*
X106930000Y-106180000D03*
D23*
X105340000Y-106230000D03*
D24*
X103620000Y-106340000D03*
D25*
X101410000Y-106390000D03*
D26*
X99260000Y-106480000D03*
D27*
X96760000Y-106580000D03*
D28*
X94210000Y-106660000D03*
D29*
X91300000Y-106800000D03*
D30*
X88150000Y-107010000D03*
D31*
X84820000Y-107120000D03*
D32*
X81000000Y-107280000D03*
%TD*%
D33*
%TO.C,REF\u002A\u002A*%
X140662500Y-105162500D03*
X140662500Y-105962500D03*
X140662500Y-106762500D03*
X140662500Y-107562500D03*
X140662500Y-108362500D03*
X140662500Y-109162500D03*
X140662500Y-109962500D03*
X140662500Y-110762500D03*
X140662500Y-111562500D03*
X140662500Y-112362500D03*
X140662500Y-113162500D03*
D34*
X139000000Y-114825000D03*
X138200000Y-114825000D03*
X137400000Y-114825000D03*
X136600000Y-114825000D03*
X135800000Y-114825000D03*
X135000000Y-114825000D03*
X134200000Y-114825000D03*
X133400000Y-114825000D03*
X132600000Y-114825000D03*
X131800000Y-114825000D03*
X131000000Y-114825000D03*
D33*
X129337500Y-113162500D03*
X129337500Y-112362500D03*
X129337500Y-111562500D03*
X129337500Y-110762500D03*
X129337500Y-109962500D03*
X129337500Y-109162500D03*
X129337500Y-108362500D03*
X129337500Y-107562500D03*
X129337500Y-106762500D03*
X129337500Y-105962500D03*
X129337500Y-105162500D03*
D34*
X131000000Y-103500000D03*
X131800000Y-103500000D03*
X132600000Y-103500000D03*
X133400000Y-103500000D03*
X134200000Y-103500000D03*
X135000000Y-103500000D03*
X135800000Y-103500000D03*
X136600000Y-103500000D03*
X137400000Y-103500000D03*
X138200000Y-103500000D03*
X139000000Y-103500000D03*
%TD*%
D35*
%TO.C,REF\u002A\u002A*%
X172000000Y-108190000D03*
X172800000Y-108190000D03*
D36*
X173950000Y-108190000D03*
X174950000Y-108190000D03*
X175450000Y-108190000D03*
X176450000Y-108190000D03*
D35*
X177600000Y-108190000D03*
X178400000Y-108190000D03*
X178400000Y-108190000D03*
X177600000Y-108190000D03*
D36*
X176950000Y-108190000D03*
X175950000Y-108190000D03*
X174450000Y-108190000D03*
X173450000Y-108190000D03*
D35*
X172800000Y-108190000D03*
X172000000Y-108190000D03*
D37*
X170880000Y-103435000D03*
D38*
X170880000Y-107615000D03*
D37*
X179520000Y-103435000D03*
D38*
X179520000Y-107615000D03*
%TD*%
D39*
%TO.C,REF\u002A\u002A*%
X194700000Y-109760000D03*
D40*
X196270000Y-104150000D03*
X184130000Y-104150000D03*
D39*
X185700000Y-109760000D03*
D41*
X187450000Y-110190000D03*
X187950000Y-110190000D03*
X188450000Y-110190000D03*
X188950000Y-110190000D03*
X189450000Y-110190000D03*
X189950000Y-110190000D03*
X190450000Y-110190000D03*
X190950000Y-110190000D03*
X191450000Y-110190000D03*
X191950000Y-110190000D03*
X192450000Y-110190000D03*
X192950000Y-110190000D03*
D42*
X192960000Y-109010000D03*
D11*
X192600000Y-108100000D03*
X191800000Y-108100000D03*
X191410000Y-109010000D03*
X191000000Y-108100000D03*
X190600000Y-109010000D03*
X189800000Y-109010000D03*
X189400000Y-108100000D03*
X189010000Y-109010000D03*
X188600000Y-108100000D03*
X187800000Y-108100000D03*
D42*
X187430000Y-109010000D03*
%TD*%
D43*
%TO.C,REF\u002A\u002A*%
X229800000Y-121765000D03*
X227260000Y-121765000D03*
X224720000Y-121765000D03*
X222180000Y-121765000D03*
X219640000Y-121765000D03*
X217100000Y-121765000D03*
X214560000Y-121765000D03*
X214560000Y-105600000D03*
X217100000Y-105600000D03*
X219640000Y-105600000D03*
X222180000Y-105600000D03*
X224720000Y-105600000D03*
X227260000Y-105600000D03*
X229800000Y-105600000D03*
D44*
X230812000Y-114980000D03*
X230812000Y-112440000D03*
X228272000Y-114980000D03*
X228272000Y-112440000D03*
X225732000Y-114980000D03*
X225732000Y-112440000D03*
X223192000Y-114980000D03*
X223192000Y-112440000D03*
D45*
X222562000Y-118155000D03*
X224467000Y-118155000D03*
D46*
X220180000Y-112590000D03*
%TD*%
D33*
%TO.C,REF\u002A\u002A*%
X179600000Y-114400000D03*
X179600000Y-115200000D03*
X179600000Y-116000000D03*
X179600000Y-116800000D03*
X179600000Y-117600000D03*
X179600000Y-118400000D03*
X179600000Y-119200000D03*
X179600000Y-120000000D03*
X179600000Y-120800000D03*
X179600000Y-121600000D03*
X179600000Y-122400000D03*
D34*
X177937500Y-124062500D03*
X177137500Y-124062500D03*
X176337500Y-124062500D03*
X175537500Y-124062500D03*
X174737500Y-124062500D03*
X173937500Y-124062500D03*
X173137500Y-124062500D03*
X172337500Y-124062500D03*
X171537500Y-124062500D03*
X170737500Y-124062500D03*
X169937500Y-124062500D03*
D33*
X168275000Y-122400000D03*
X168275000Y-121600000D03*
X168275000Y-120800000D03*
X168275000Y-120000000D03*
X168275000Y-119200000D03*
X168275000Y-118400000D03*
X168275000Y-117600000D03*
X168275000Y-116800000D03*
X168275000Y-116000000D03*
X168275000Y-115200000D03*
X168275000Y-114400000D03*
D34*
X169937500Y-112737500D03*
X170737500Y-112737500D03*
X171537500Y-112737500D03*
X172337500Y-112737500D03*
X173137500Y-112737500D03*
X173937500Y-112737500D03*
X174737500Y-112737500D03*
X175537500Y-112737500D03*
X176337500Y-112737500D03*
X177137500Y-112737500D03*
X177937500Y-112737500D03*
D47*
X173937500Y-118400000D03*
%TD*%
M02*
